<svg width="56" height="56" viewBox="0 0 56 56" fill="none" xmlns="http://www.w3.org/2000/svg">
<path d="M46.6667 9.88773V4.66667C46.6634 2.09067 44.576 0.00326667 42 0H4.66667C2.09067 0.00326667 0.00326667 2.09067 0 4.66667V25.2C0.00723335 27.5835 1.81393 29.5769 4.18507 29.8186L7.69347 38.9258C8.62027 41.3306 11.3209 42.5285 13.7258 41.6029L35.6347 33.1632C34.1208 37.1175 34.5515 41.5534 36.7971 45.1428L37.3333 46.0003V55.0667C37.3333 55.5823 37.751 56 38.2667 56H55.0667C55.5823 56 56 55.5823 56 55.0667V24.2585C55.9911 21.0308 54.7062 17.9382 52.4242 15.6555L46.6667 9.88773ZM46.6667 15.4695L49.4993 22.8228C50.0544 24.2662 49.3351 25.8858 47.8919 26.4413L46.2728 27.0667C46.5313 26.4782 46.6653 25.8421 46.6667 25.2V15.4695ZM1.86667 25.2V4.66667C1.86667 3.1206 3.1206 1.86667 4.66667 1.86667H42C43.5461 1.86667 44.8 3.1206 44.8 4.66667V10.5989H44.7918L44.8 10.6202V25.2C44.7928 25.3629 44.7715 25.5243 44.7365 25.6835L36.1872 17.1332C34.2655 15.2558 31.2018 15.2413 29.2628 17.0991C27.3233 18.9581 27.2069 22.0194 29.0005 24.0191L32.6452 28H4.66667C3.1206 28 1.86667 26.7461 1.86667 25.2ZM13.8236 29.8667L7.18667 32.4219L6.2048 29.8667H13.8236ZM13.0545 39.8606C11.6116 40.4168 9.9911 39.6975 9.43507 38.2545L7.86053 34.16L19.0017 29.8667V29.8611H34.356L35.5691 31.1836L13.0545 39.8606ZM54.1333 54.1333H39.2V46.6667H54.1333V54.1333ZM54.1333 44.8H38.7847L38.3798 44.1532C36.1041 40.5165 36.0136 35.9231 38.1435 32.2C38.3451 31.8477 38.2956 31.4053 38.0212 31.1061L30.3728 22.7621C29.2322 21.5138 29.2964 19.5839 30.5174 18.4147C31.7389 17.2452 33.6698 17.2643 34.8672 18.4571L49.7401 33.3265L51.0599 32.0068L47.6065 28.5535L48.5641 28.1801C50.967 27.2531 52.1645 24.5548 51.24 22.1506L48.0809 13.9475L51.1044 16.9773C53.0364 18.9089 54.1259 21.5264 54.1333 24.2585V44.8Z" fill="black"/>
<path d="M46.6667 9.88773V4.66667C46.6634 2.09067 44.576 0.00326667 42 0H4.66667C2.09067 0.00326667 0.00326667 2.09067 0 4.66667V25.2C0.00723335 27.5835 1.81393 29.5769 4.18507 29.8186L7.69347 38.9258C8.62027 41.3306 11.3209 42.5285 13.7258 41.6029L35.6347 33.1632C34.1208 37.1175 34.5515 41.5534 36.7971 45.1428L37.3333 46.0003V55.0667C37.3333 55.5823 37.751 56 38.2667 56H55.0667C55.5823 56 56 55.5823 56 55.0667V24.2585C55.9911 21.0308 54.7062 17.9382 52.4242 15.6555L46.6667 9.88773ZM46.6667 15.4695L49.4993 22.8228C50.0544 24.2662 49.3351 25.8858 47.8919 26.4413L46.2728 27.0667C46.5313 26.4782 46.6653 25.8421 46.6667 25.2V15.4695ZM1.86667 25.2V4.66667C1.86667 3.1206 3.1206 1.86667 4.66667 1.86667H42C43.5461 1.86667 44.8 3.1206 44.8 4.66667V10.5989H44.7918L44.8 10.6202V25.2C44.7928 25.3629 44.7715 25.5243 44.7365 25.6835L36.1872 17.1332C34.2655 15.2558 31.2018 15.2413 29.2628 17.0991C27.3233 18.9581 27.2069 22.0194 29.0005 24.0191L32.6452 28H4.66667C3.1206 28 1.86667 26.7461 1.86667 25.2ZM13.8236 29.8667L7.18667 32.4219L6.2048 29.8667H13.8236ZM13.0545 39.8606C11.6116 40.4168 9.9911 39.6975 9.43507 38.2545L7.86053 34.16L19.0017 29.8667V29.8611H34.356L35.5691 31.1836L13.0545 39.8606ZM54.1333 54.1333H39.2V46.6667H54.1333V54.1333ZM54.1333 44.8H38.7847L38.3798 44.1532C36.1041 40.5165 36.0136 35.9231 38.1435 32.2C38.3451 31.8477 38.2956 31.4053 38.0212 31.1061L30.3728 22.7621C29.2322 21.5138 29.2964 19.5839 30.5174 18.4147C31.7389 17.2452 33.6698 17.2643 34.8672 18.4571L49.7401 33.3265L51.0599 32.0068L47.6065 28.5535L48.5641 28.1801C50.967 27.2531 52.1645 24.5548 51.24 22.1506L48.0809 13.9475L51.1044 16.9773C53.0364 18.9089 54.1259 21.5264 54.1333 24.2585V44.8Z" fill="url(#paint0_linear)"/>
<path d="M10.64 13.0667C11.9803 13.0667 13.0667 11.9803 13.0667 10.64V6.16C13.0667 4.81973 11.9803 3.73333 10.64 3.73333H6.16C4.81973 3.73333 3.73333 4.81973 3.73333 6.16V10.64C3.73333 11.9803 4.81973 13.0667 6.16 13.0667H10.64ZM5.6 10.64V9.33333H7.46667V7.46667H5.6V6.16C5.6 5.85083 5.85083 5.6 6.16 5.6H10.64C10.9492 5.6 11.2 5.85083 11.2 6.16V7.46667H9.33333V9.33333H11.2V10.64C11.2 10.9492 10.9492 11.2 10.64 11.2H6.16C5.85083 11.2 5.6 10.9492 5.6 10.64Z" fill="black"/>
<path d="M10.64 13.0667C11.9803 13.0667 13.0667 11.9803 13.0667 10.64V6.16C13.0667 4.81973 11.9803 3.73333 10.64 3.73333H6.16C4.81973 3.73333 3.73333 4.81973 3.73333 6.16V10.64C3.73333 11.9803 4.81973 13.0667 6.16 13.0667H10.64ZM5.6 10.64V9.33333H7.46667V7.46667H5.6V6.16C5.6 5.85083 5.85083 5.6 6.16 5.6H10.64C10.9492 5.6 11.2 5.85083 11.2 6.16V7.46667H9.33333V9.33333H11.2V10.64C11.2 10.9492 10.9492 11.2 10.64 11.2H6.16C5.85083 11.2 5.6 10.9492 5.6 10.64Z" fill="url(#paint1_linear)"/>
<path d="M4.66667 15.8667H8.4V17.7333H4.66667V15.8667Z" fill="black"/>
<path d="M4.66667 15.8667H8.4V17.7333H4.66667V15.8667Z" fill="url(#paint2_linear)"/>
<path d="M4.66667 21.4667H8.4V23.3333H4.66667V21.4667Z" fill="black"/>
<path d="M4.66667 21.4667H8.4V23.3333H4.66667V21.4667Z" fill="url(#paint3_linear)"/>
<path d="M21.4667 21.4667H25.2V23.3333H21.4667V21.4667Z" fill="black"/>
<path d="M21.4667 21.4667H25.2V23.3333H21.4667V21.4667Z" fill="url(#paint4_linear)"/>
<path d="M10.2667 15.8667H14V17.7333H10.2667V15.8667Z" fill="black"/>
<path d="M10.2667 15.8667H14V17.7333H10.2667V15.8667Z" fill="url(#paint5_linear)"/>
<path d="M15.8667 15.8667H19.6V17.7333H15.8667V15.8667Z" fill="black"/>
<path d="M15.8667 15.8667H19.6V17.7333H15.8667V15.8667Z" fill="url(#paint6_linear)"/>
<path d="M21.4667 15.8667H25.2V17.7333H21.4667V15.8667Z" fill="black"/>
<path d="M21.4667 15.8667H25.2V17.7333H21.4667V15.8667Z" fill="url(#paint7_linear)"/>
<path d="M39.2 4.66667H41.0667V7.46667H39.2V4.66667Z" fill="black"/>
<path d="M39.2 4.66667H41.0667V7.46667H39.2V4.66667Z" fill="url(#paint8_linear)"/>
<path d="M35.4667 4.66667H37.3333V7.46667H35.4667V4.66667Z" fill="black"/>
<path d="M35.4667 4.66667H37.3333V7.46667H35.4667V4.66667Z" fill="url(#paint9_linear)"/>
<path d="M31.7333 4.66667H33.6V7.46667H31.7333V4.66667Z" fill="black"/>
<path d="M31.7333 4.66667H33.6V7.46667H31.7333V4.66667Z" fill="url(#paint10_linear)"/>
<path d="M28 4.66667H29.8667V7.46667H28V4.66667Z" fill="black"/>
<path d="M28 4.66667H29.8667V7.46667H28V4.66667Z" fill="url(#paint11_linear)"/>
<path d="M41.0667 48.5333H42.9333V50.4H41.0667V48.5333Z" fill="black"/>
<path d="M41.0667 48.5333H42.9333V50.4H41.0667V48.5333Z" fill="url(#paint12_linear)"/>
<defs>
<linearGradient id="paint0_linear" x1="16.7846" y1="4.70312" x2="30.7867" y2="59.4238" gradientUnits="userSpaceOnUse">
<stop stop-color="#FF9302"/>
<stop offset="0.96875" stop-color="#ED1B23"/>
</linearGradient>
<linearGradient id="paint1_linear" x1="16.7846" y1="4.70312" x2="30.7867" y2="59.4238" gradientUnits="userSpaceOnUse">
<stop stop-color="#FF9302"/>
<stop offset="0.96875" stop-color="#ED1B23"/>
</linearGradient>
<linearGradient id="paint2_linear" x1="16.7846" y1="4.70312" x2="30.7867" y2="59.4238" gradientUnits="userSpaceOnUse">
<stop stop-color="#FF9302"/>
<stop offset="0.96875" stop-color="#ED1B23"/>
</linearGradient>
<linearGradient id="paint3_linear" x1="16.7846" y1="4.70312" x2="30.7867" y2="59.4238" gradientUnits="userSpaceOnUse">
<stop stop-color="#FF9302"/>
<stop offset="0.96875" stop-color="#ED1B23"/>
</linearGradient>
<linearGradient id="paint4_linear" x1="16.7846" y1="4.70312" x2="30.7867" y2="59.4238" gradientUnits="userSpaceOnUse">
<stop stop-color="#FF9302"/>
<stop offset="0.96875" stop-color="#ED1B23"/>
</linearGradient>
<linearGradient id="paint5_linear" x1="16.7846" y1="4.70312" x2="30.7867" y2="59.4238" gradientUnits="userSpaceOnUse">
<stop stop-color="#FF9302"/>
<stop offset="0.96875" stop-color="#ED1B23"/>
</linearGradient>
<linearGradient id="paint6_linear" x1="16.7846" y1="4.70312" x2="30.7867" y2="59.4238" gradientUnits="userSpaceOnUse">
<stop stop-color="#FF9302"/>
<stop offset="0.96875" stop-color="#ED1B23"/>
</linearGradient>
<linearGradient id="paint7_linear" x1="16.7846" y1="4.70312" x2="30.7867" y2="59.4238" gradientUnits="userSpaceOnUse">
<stop stop-color="#FF9302"/>
<stop offset="0.96875" stop-color="#ED1B23"/>
</linearGradient>
<linearGradient id="paint8_linear" x1="16.7846" y1="4.70312" x2="30.7867" y2="59.4238" gradientUnits="userSpaceOnUse">
<stop stop-color="#FF9302"/>
<stop offset="0.96875" stop-color="#ED1B23"/>
</linearGradient>
<linearGradient id="paint9_linear" x1="16.7846" y1="4.70312" x2="30.7867" y2="59.4238" gradientUnits="userSpaceOnUse">
<stop stop-color="#FF9302"/>
<stop offset="0.96875" stop-color="#ED1B23"/>
</linearGradient>
<linearGradient id="paint10_linear" x1="16.7846" y1="4.70312" x2="30.7867" y2="59.4238" gradientUnits="userSpaceOnUse">
<stop stop-color="#FF9302"/>
<stop offset="0.96875" stop-color="#ED1B23"/>
</linearGradient>
<linearGradient id="paint11_linear" x1="16.7846" y1="4.70312" x2="30.7867" y2="59.4238" gradientUnits="userSpaceOnUse">
<stop stop-color="#FF9302"/>
<stop offset="0.96875" stop-color="#ED1B23"/>
</linearGradient>
<linearGradient id="paint12_linear" x1="16.7846" y1="4.70312" x2="30.7867" y2="59.4238" gradientUnits="userSpaceOnUse">
<stop stop-color="#FF9302"/>
<stop offset="0.96875" stop-color="#ED1B23"/>
</linearGradient>
</defs>
</svg>
