<svg width="56" height="56" viewBox="0 0 56 56" fill="none" xmlns="http://www.w3.org/2000/svg">
<g clip-path="url(#clip0)">
<path d="M34.939 15.5064C35.0917 15.2899 35.2129 15.0529 35.2986 14.8023C35.6828 14.867 36.0492 15.0133 36.3718 15.2316C37.0213 15.6704 37.7828 15.9138 38.5662 15.9339C38.8137 15.9329 39.0602 15.9102 39.3036 15.8664C40.3285 15.6914 41.2423 15.1163 41.8429 14.2677C42.1647 13.7605 42.6851 13.4123 43.2762 13.3079C43.8677 13.204 44.4757 13.353 44.951 13.7199C45.8064 14.3119 46.8614 14.5398 47.8846 14.3534L47.5596 12.515C46.9685 12.6193 46.3606 12.4698 45.8853 12.1034C44.1024 10.8834 41.6716 11.3123 40.4133 13.0682C40.0915 13.5754 39.5711 13.9236 38.9795 14.028C38.7102 14.0822 38.4317 14.0754 38.1647 14.0084C38.717 13.8626 39.2279 13.5914 39.6581 13.2159C40.4584 12.5519 40.962 11.5967 41.0581 10.5612C41.0832 9.96103 41.3598 9.39957 41.8206 9.01402C42.2786 8.62391 42.8811 8.44891 43.4763 8.53231C44.514 8.62664 45.5453 8.29487 46.3332 7.61401L45.1306 6.18483C44.6653 6.56081 44.0687 6.73399 43.4744 6.66563C41.3206 6.50111 39.4293 8.08751 39.2174 10.2377C39.1928 10.8369 38.9166 11.3984 38.4573 11.7844C37.9974 12.17 37.3968 12.345 36.802 12.2657C36.2196 12.2206 35.634 12.2985 35.0839 12.4954C34.8269 12.0497 34.4518 11.6832 34.0002 11.4367L38.1733 3.10043C38.3183 2.81013 38.3023 2.4656 38.131 2.18988C37.9596 1.91461 37.6575 1.74782 37.3334 1.74964C36.6758 1.75556 36.0446 1.49261 35.5862 1.02183C33.9382 -0.496211 31.4021 -0.496211 29.7546 1.02183C29.2916 1.4885 28.6613 1.75055 28.0041 1.75055C27.3465 1.75055 26.7167 1.4885 26.2537 1.02183C24.6044 -0.495299 22.0678 -0.495299 20.4185 1.02183C19.9582 1.49306 19.3252 1.75602 18.6666 1.74964C18.3431 1.74964 18.0423 1.91689 17.8723 2.19216C17.7018 2.46696 17.6863 2.81104 17.8313 3.10043L21.9994 11.4367C21.293 11.8136 20.784 12.4776 20.6039 13.2578C20.4239 14.038 20.5903 14.8579 21.0606 15.5064C12.5028 17.8051 6.5487 25.5553 6.5332 34.4166V51.2167C6.53594 53.7929 8.62365 55.8802 11.1999 55.8834H44.8002C47.376 55.8802 49.4637 53.7929 49.4669 51.2167V34.4166C49.4509 25.5553 43.4968 17.8051 34.939 15.5064ZM21.5842 2.47881C22.0477 2.01214 22.678 1.74964 23.3361 1.74964C23.9937 1.74964 24.6244 2.01214 25.0879 2.47881C26.7363 3.99549 29.2724 3.99549 30.9213 2.47881C31.3838 2.01214 32.0132 1.74964 32.6704 1.74964C33.3271 1.74964 33.9569 2.01214 34.4195 2.47881C34.8652 2.87211 35.3783 3.18246 35.9343 3.39438L32.0898 11.083H23.9098L20.0666 3.39529C20.6231 3.18292 21.1372 2.87256 21.5842 2.47881ZM23.3333 14.8164C22.8174 14.8164 22.4 14.3985 22.4 13.8831C22.4 13.3676 22.8174 12.9497 23.3333 12.9497H32.6667C33.1822 12.9497 33.6001 13.3676 33.6001 13.8831C33.6001 14.3985 33.1822 14.8164 32.6667 14.8164H23.3333ZM47.6002 51.2167C47.6002 52.763 46.3465 54.0167 44.8002 54.0167H11.1999C9.65315 54.0167 8.39988 52.763 8.39988 51.2167V34.4166C8.41037 24.627 16.3438 16.694 26.1333 16.6831H29.8667C39.6558 16.694 47.5892 24.627 47.6002 34.4166V51.2167Z" fill="black"/>
<path d="M34.939 15.5064C35.0917 15.2899 35.2129 15.0529 35.2986 14.8023C35.6828 14.867 36.0492 15.0133 36.3718 15.2316C37.0213 15.6704 37.7828 15.9138 38.5662 15.9339C38.8137 15.9329 39.0602 15.9102 39.3036 15.8664C40.3285 15.6914 41.2423 15.1163 41.8429 14.2677C42.1647 13.7605 42.6851 13.4123 43.2762 13.3079C43.8677 13.204 44.4757 13.353 44.951 13.7199C45.8064 14.3119 46.8614 14.5398 47.8846 14.3534L47.5596 12.515C46.9685 12.6193 46.3606 12.4698 45.8853 12.1034C44.1024 10.8834 41.6716 11.3123 40.4133 13.0682C40.0915 13.5754 39.5711 13.9236 38.9795 14.028C38.7102 14.0822 38.4317 14.0754 38.1647 14.0084C38.717 13.8626 39.2279 13.5914 39.6581 13.2159C40.4584 12.5519 40.962 11.5967 41.0581 10.5612C41.0832 9.96103 41.3598 9.39957 41.8206 9.01402C42.2786 8.62391 42.8811 8.44891 43.4763 8.53231C44.514 8.62664 45.5453 8.29487 46.3332 7.61401L45.1306 6.18483C44.6653 6.56081 44.0687 6.73399 43.4744 6.66563C41.3206 6.50111 39.4293 8.08751 39.2174 10.2377C39.1928 10.8369 38.9166 11.3984 38.4573 11.7844C37.9974 12.17 37.3968 12.345 36.802 12.2657C36.2196 12.2206 35.634 12.2985 35.0839 12.4954C34.8269 12.0497 34.4518 11.6832 34.0002 11.4367L38.1733 3.10043C38.3183 2.81013 38.3023 2.4656 38.131 2.18988C37.9596 1.91461 37.6575 1.74782 37.3334 1.74964C36.6758 1.75556 36.0446 1.49261 35.5862 1.02183C33.9382 -0.496211 31.4021 -0.496211 29.7546 1.02183C29.2916 1.4885 28.6613 1.75055 28.0041 1.75055C27.3465 1.75055 26.7167 1.4885 26.2537 1.02183C24.6044 -0.495299 22.0678 -0.495299 20.4185 1.02183C19.9582 1.49306 19.3252 1.75602 18.6666 1.74964C18.3431 1.74964 18.0423 1.91689 17.8723 2.19216C17.7018 2.46696 17.6863 2.81104 17.8313 3.10043L21.9994 11.4367C21.293 11.8136 20.784 12.4776 20.6039 13.2578C20.4239 14.038 20.5903 14.8579 21.0606 15.5064C12.5028 17.8051 6.5487 25.5553 6.5332 34.4166V51.2167C6.53594 53.7929 8.62365 55.8802 11.1999 55.8834H44.8002C47.376 55.8802 49.4637 53.7929 49.4669 51.2167V34.4166C49.4509 25.5553 43.4968 17.8051 34.939 15.5064ZM21.5842 2.47881C22.0477 2.01214 22.678 1.74964 23.3361 1.74964C23.9937 1.74964 24.6244 2.01214 25.0879 2.47881C26.7363 3.99549 29.2724 3.99549 30.9213 2.47881C31.3838 2.01214 32.0132 1.74964 32.6704 1.74964C33.3271 1.74964 33.9569 2.01214 34.4195 2.47881C34.8652 2.87211 35.3783 3.18246 35.9343 3.39438L32.0898 11.083H23.9098L20.0666 3.39529C20.6231 3.18292 21.1372 2.87256 21.5842 2.47881ZM23.3333 14.8164C22.8174 14.8164 22.4 14.3985 22.4 13.8831C22.4 13.3676 22.8174 12.9497 23.3333 12.9497H32.6667C33.1822 12.9497 33.6001 13.3676 33.6001 13.8831C33.6001 14.3985 33.1822 14.8164 32.6667 14.8164H23.3333ZM47.6002 51.2167C47.6002 52.763 46.3465 54.0167 44.8002 54.0167H11.1999C9.65315 54.0167 8.39988 52.763 8.39988 51.2167V34.4166C8.41037 24.627 16.3438 16.694 26.1333 16.6831H29.8667C39.6558 16.694 47.5892 24.627 47.6002 34.4166V51.2167Z" fill="url(#paint0_linear)"/>
<path d="M21.7396 41.2229L32.9402 30.0228L34.26 31.3426L23.0599 42.5432L21.7396 41.2229Z" fill="black"/>
<path d="M21.7396 41.2229L32.9402 30.0228L34.26 31.3426L23.0599 42.5432L21.7396 41.2229Z" fill="url(#paint1_linear)"/>
<path d="M31.7334 37.2166C30.1866 37.2166 28.9334 38.4703 28.9334 40.0166C28.9334 41.5629 30.1866 42.8166 31.7334 42.8166C33.2797 42.8166 34.5334 41.5629 34.5334 40.0166C34.5334 38.4703 33.2797 37.2166 31.7334 37.2166ZM31.7334 40.9499C31.2175 40.9499 30.8001 40.532 30.8001 40.0166C30.8001 39.5012 31.2175 39.0833 31.7334 39.0833C32.2488 39.0833 32.6667 39.5012 32.6667 40.0166C32.6667 40.532 32.2488 40.9499 31.7334 40.9499Z" fill="black"/>
<path d="M31.7334 37.2166C30.1866 37.2166 28.9334 38.4703 28.9334 40.0166C28.9334 41.5629 30.1866 42.8166 31.7334 42.8166C33.2797 42.8166 34.5334 41.5629 34.5334 40.0166C34.5334 38.4703 33.2797 37.2166 31.7334 37.2166ZM31.7334 40.9499C31.2175 40.9499 30.8001 40.532 30.8001 40.0166C30.8001 39.5012 31.2175 39.0833 31.7334 39.0833C32.2488 39.0833 32.6667 39.5012 32.6667 40.0166C32.6667 40.532 32.2488 40.9499 31.7334 40.9499Z" fill="url(#paint2_linear)"/>
<path d="M24.2667 35.3499C25.813 35.3499 27.0667 34.0962 27.0667 32.5499C27.0667 31.0036 25.813 29.7498 24.2667 29.7498C22.7199 29.7498 21.4666 31.0036 21.4666 32.5499C21.4666 34.0962 22.7199 35.3499 24.2667 35.3499ZM24.2667 31.6165C24.7821 31.6165 25.2 32.0344 25.2 32.5499C25.2 33.0653 24.7821 33.4832 24.2667 33.4832C23.7508 33.4832 23.3333 33.0653 23.3333 32.5499C23.3333 32.0344 23.7508 31.6165 24.2667 31.6165Z" fill="black"/>
<path d="M24.2667 35.3499C25.813 35.3499 27.0667 34.0962 27.0667 32.5499C27.0667 31.0036 25.813 29.7498 24.2667 29.7498C22.7199 29.7498 21.4666 31.0036 21.4666 32.5499C21.4666 34.0962 22.7199 35.3499 24.2667 35.3499ZM24.2667 31.6165C24.7821 31.6165 25.2 32.0344 25.2 32.5499C25.2 33.0653 24.7821 33.4832 24.2667 33.4832C23.7508 33.4832 23.3333 33.0653 23.3333 32.5499C23.3333 32.0344 23.7508 31.6165 24.2667 31.6165Z" fill="url(#paint3_linear)"/>
<path d="M28 23.2165C20.783 23.2165 14.9333 29.0667 14.9333 36.2832C14.9333 43.4998 20.783 49.35 28 49.35C35.2166 49.35 41.0668 43.4998 41.0668 36.2832C41.059 29.0699 35.2134 23.2242 28 23.2165ZM28 47.4833C21.8144 47.4833 16.7999 42.4689 16.7999 36.2832C16.7999 30.0976 21.8144 25.0831 28 25.0831C34.1852 25.0831 39.2001 30.0976 39.2001 36.2832C39.1933 42.4662 34.1825 47.4765 28 47.4833Z" fill="black"/>
<path d="M28 23.2165C20.783 23.2165 14.9333 29.0667 14.9333 36.2832C14.9333 43.4998 20.783 49.35 28 49.35C35.2166 49.35 41.0668 43.4998 41.0668 36.2832C41.059 29.0699 35.2134 23.2242 28 23.2165ZM28 47.4833C21.8144 47.4833 16.7999 42.4689 16.7999 36.2832C16.7999 30.0976 21.8144 25.0831 28 25.0831C34.1852 25.0831 39.2001 30.0976 39.2001 36.2832C39.1933 42.4662 34.1825 47.4765 28 47.4833Z" fill="url(#paint4_linear)"/>
</g>
<defs>
<linearGradient id="paint0_linear" x1="19.4015" y1="4.58642" x2="36.9104" y2="57.0463" gradientUnits="userSpaceOnUse">
<stop stop-color="#FF9302"/>
<stop offset="0.916667" stop-color="#ED1B23"/>
</linearGradient>
<linearGradient id="paint1_linear" x1="19.4015" y1="4.58642" x2="36.9104" y2="57.0463" gradientUnits="userSpaceOnUse">
<stop stop-color="#FF9302"/>
<stop offset="0.916667" stop-color="#ED1B23"/>
</linearGradient>
<linearGradient id="paint2_linear" x1="19.4015" y1="4.58642" x2="36.9104" y2="57.0463" gradientUnits="userSpaceOnUse">
<stop stop-color="#FF9302"/>
<stop offset="0.916667" stop-color="#ED1B23"/>
</linearGradient>
<linearGradient id="paint3_linear" x1="19.4015" y1="4.58642" x2="36.9104" y2="57.0463" gradientUnits="userSpaceOnUse">
<stop stop-color="#FF9302"/>
<stop offset="0.916667" stop-color="#ED1B23"/>
</linearGradient>
<linearGradient id="paint4_linear" x1="19.4015" y1="4.58642" x2="36.9104" y2="57.0463" gradientUnits="userSpaceOnUse">
<stop stop-color="#FF9302"/>
<stop offset="0.916667" stop-color="#ED1B23"/>
</linearGradient>
<clipPath id="clip0">
<rect width="56" height="56" fill="white"/>
</clipPath>
</defs>
</svg>
