<svg width="56" height="56" viewBox="0 0 56 56" fill="none" xmlns="http://www.w3.org/2000/svg">
<path d="M18.9113 43.0112C18.6238 43.0112 18.3417 43.1271 18.1383 43.3316C17.935 43.5349 17.8179 43.8159 17.8179 44.1046C17.8179 44.3922 17.9349 44.6743 18.1383 44.8776C18.3417 45.081 18.6238 45.198 18.9113 45.198C19.1989 45.198 19.481 45.081 19.6844 44.8776C19.8876 44.6743 20.0047 44.3922 20.0047 44.1046C20.0047 43.8159 19.8877 43.5349 19.6844 43.3316C19.481 43.127 19.1989 43.0112 18.9113 43.0112Z" fill="black"/>
<path d="M18.9113 43.0112C18.6238 43.0112 18.3417 43.1271 18.1383 43.3316C17.935 43.5349 17.8179 43.8159 17.8179 44.1046C17.8179 44.3922 17.9349 44.6743 18.1383 44.8776C18.3417 45.081 18.6238 45.198 18.9113 45.198C19.1989 45.198 19.481 45.081 19.6844 44.8776C19.8876 44.6743 20.0047 44.3922 20.0047 44.1046C20.0047 43.8159 19.8877 43.5349 19.6844 43.3316C19.481 43.127 19.1989 43.0112 18.9113 43.0112Z" fill="url(#paint0_linear)"/>
<path d="M28.9 35.886C28.9 35.2821 28.4104 34.7926 27.8066 34.7926H15.5967C14.9929 34.7926 14.5033 35.2821 14.5033 35.886C14.5033 36.4899 14.9929 36.9794 15.5967 36.9794H27.8066C28.4105 36.9794 28.9 36.4899 28.9 35.886Z" fill="black"/>
<path d="M28.9 35.886C28.9 35.2821 28.4104 34.7926 27.8066 34.7926H15.5967C14.9929 34.7926 14.5033 35.2821 14.5033 35.886C14.5033 36.4899 14.9929 36.9794 15.5967 36.9794H27.8066C28.4105 36.9794 28.9 36.4899 28.9 35.886Z" fill="url(#paint1_linear)"/>
<path d="M14.3231 24.7334H29.0803C29.6841 24.7334 30.1737 24.2439 30.1737 23.64C30.1737 23.0361 29.6841 22.5466 29.0803 22.5466H14.3231C13.7194 22.5466 13.2297 23.0361 13.2297 23.64C13.2297 24.2439 13.7194 24.7334 14.3231 24.7334Z" fill="black"/>
<path d="M14.3231 24.7334H29.0803C29.6841 24.7334 30.1737 24.2439 30.1737 23.64C30.1737 23.0361 29.6841 22.5466 29.0803 22.5466H14.3231C13.7194 22.5466 13.2297 23.0361 13.2297 23.64C13.2297 24.2439 13.7194 24.7334 14.3231 24.7334Z" fill="url(#paint2_linear)"/>
<path d="M21.3716 16.1972C20.5776 16.1972 19.9317 15.6563 19.9317 14.9915C19.9317 14.3876 19.4421 13.8981 18.8383 13.8981C18.2345 13.8981 17.7449 14.3876 17.7449 14.9915C17.7449 16.5057 18.8112 17.7911 20.2782 18.2261V18.378C20.2782 18.9819 20.7678 19.4714 21.3716 19.4714C21.9753 19.4714 22.465 18.9819 22.465 18.378V18.2261C23.932 17.7912 24.9983 16.5058 24.9983 14.9915C24.9983 13.1209 23.3713 11.599 21.3716 11.599C20.5776 11.599 19.9317 11.0581 19.9317 10.3933C19.9317 9.72853 20.5776 9.18763 21.3716 9.18763C22.1656 9.18763 22.8115 9.72853 22.8115 10.3933C22.8115 10.9972 23.3011 11.4867 23.9049 11.4867C24.5086 11.4867 24.9983 10.9972 24.9983 10.3933C24.9983 8.87907 23.932 7.59368 22.465 7.15873V7.00675C22.465 6.40287 21.9753 5.91335 21.3716 5.91335C20.7678 5.91335 20.2782 6.40287 20.2782 7.00675V7.15873C18.8112 7.59357 17.7449 8.87896 17.7449 10.3933C17.7449 12.2639 19.3719 13.7858 21.3716 13.7858C22.1656 13.7858 22.8115 14.3267 22.8115 14.9915C22.8115 15.6563 22.1656 16.1972 21.3716 16.1972Z" fill="black"/>
<path d="M21.3716 16.1972C20.5776 16.1972 19.9317 15.6563 19.9317 14.9915C19.9317 14.3876 19.4421 13.8981 18.8383 13.8981C18.2345 13.8981 17.7449 14.3876 17.7449 14.9915C17.7449 16.5057 18.8112 17.7911 20.2782 18.2261V18.378C20.2782 18.9819 20.7678 19.4714 21.3716 19.4714C21.9753 19.4714 22.465 18.9819 22.465 18.378V18.2261C23.932 17.7912 24.9983 16.5058 24.9983 14.9915C24.9983 13.1209 23.3713 11.599 21.3716 11.599C20.5776 11.599 19.9317 11.0581 19.9317 10.3933C19.9317 9.72853 20.5776 9.18763 21.3716 9.18763C22.1656 9.18763 22.8115 9.72853 22.8115 10.3933C22.8115 10.9972 23.3011 11.4867 23.9049 11.4867C24.5086 11.4867 24.9983 10.9972 24.9983 10.3933C24.9983 8.87907 23.932 7.59368 22.465 7.15873V7.00675C22.465 6.40287 21.9753 5.91335 21.3716 5.91335C20.7678 5.91335 20.2782 6.40287 20.2782 7.00675V7.15873C18.8112 7.59357 17.7449 8.87896 17.7449 10.3933C17.7449 12.2639 19.3719 13.7858 21.3716 13.7858C22.1656 13.7858 22.8115 14.3267 22.8115 14.9915C22.8115 15.6563 22.1656 16.1972 21.3716 16.1972Z" fill="url(#paint3_linear)"/>
<path d="M54.2505 33.7815L52.5447 35.0067C49.985 36.8451 46.9662 37.8169 43.8147 37.8169H40.0113C39.106 37.8169 38.3693 37.0803 38.3693 36.175C38.3693 35.2695 39.1059 34.5329 40.0113 34.5329H41.8701C45.0568 34.5329 47.661 31.9979 47.7757 28.8388L52.5526 20.5648H54.9065C55.5103 20.5648 55.9999 20.0753 55.9999 19.4714C55.9999 18.8676 55.5103 18.378 54.9065 18.378H53.8152L55.8534 14.8477C55.9984 14.5965 56.0377 14.2982 55.9626 14.018C55.8875 13.7379 55.7043 13.4991 55.4532 13.3541L51.2868 10.9487C50.7637 10.6468 50.0951 10.826 49.7932 11.3488L45.735 18.378H44.7023C44.1548 18.378 43.6132 18.4155 43.0797 18.4877V1.10243C43.0797 0.498545 42.5901 0.0090332 41.9863 0.0090332H1.09339C0.489622 0.0090332 0 0.498545 0 1.10243V54.8974C0 55.5013 0.489622 55.9908 1.09339 55.9908H41.9863C42.5901 55.9908 43.0797 55.5013 43.0797 54.8974V40.0037H43.8148C47.4268 40.0037 50.8867 38.89 53.8205 36.7828L55.5263 35.5577C56.0167 35.2054 56.1288 34.5222 55.7765 34.0317C55.4242 33.5414 54.7412 33.4291 54.2505 33.7815ZM38.8999 39.8386L38.8912 39.8536L36.2729 41.7647L36.6188 38.5415L36.7915 38.2425C37.278 38.9979 38.0224 39.5719 38.8999 39.8386ZM51.1404 13.3892L53.413 14.7013L43.422 32.0061C42.9493 32.2238 42.4239 32.3461 41.8702 32.3461H40.1957L51.1404 13.3892ZM38.7523 30.4726C38.7522 30.4729 38.7519 30.4732 38.7517 30.4734L35.9204 35.3774C35.7404 35.689 35.4475 35.9008 35.0952 35.9739C34.7431 36.0471 34.3897 35.9693 34.1006 35.755C33.6953 35.4544 33.5121 34.944 33.634 34.4543L35.252 27.9517C35.6807 26.2287 36.5723 24.6559 37.8303 23.4031C39.6128 21.6279 41.9628 20.6292 44.4691 20.5706L38.7523 30.4726ZM2.18679 53.804V2.19582H40.8929V18.9973C39.1783 19.5734 37.606 20.5403 36.2873 21.8535C34.7468 23.3876 33.6551 25.3137 33.13 27.4236L32.8201 28.6696H9.76335C9.15957 28.6696 8.66995 29.1591 8.66995 29.763C8.66995 30.3669 9.15957 30.8564 9.76335 30.8564H32.2759L31.512 33.9261C31.1761 35.2759 31.6811 36.6833 32.7985 37.5117C33.2895 37.8757 33.8644 38.0954 34.46 38.1623L33.9397 43.0108H23.8317C23.2279 43.0108 22.7383 43.5003 22.7383 44.1042C22.7383 44.708 23.2279 45.1976 23.8317 45.1976H34.9221C35.1492 45.1976 35.3757 45.1268 35.5668 44.9873L40.3672 41.4836C40.4903 41.3938 40.5932 41.2791 40.6695 41.1471L40.893 40.76V53.8039H2.18679V53.804Z" fill="black"/>
<path d="M54.2505 33.7815L52.5447 35.0067C49.985 36.8451 46.9662 37.8169 43.8147 37.8169H40.0113C39.106 37.8169 38.3693 37.0803 38.3693 36.175C38.3693 35.2695 39.1059 34.5329 40.0113 34.5329H41.8701C45.0568 34.5329 47.661 31.9979 47.7757 28.8388L52.5526 20.5648H54.9065C55.5103 20.5648 55.9999 20.0753 55.9999 19.4714C55.9999 18.8676 55.5103 18.378 54.9065 18.378H53.8152L55.8534 14.8477C55.9984 14.5965 56.0377 14.2982 55.9626 14.018C55.8875 13.7379 55.7043 13.4991 55.4532 13.3541L51.2868 10.9487C50.7637 10.6468 50.0951 10.826 49.7932 11.3488L45.735 18.378H44.7023C44.1548 18.378 43.6132 18.4155 43.0797 18.4877V1.10243C43.0797 0.498545 42.5901 0.0090332 41.9863 0.0090332H1.09339C0.489622 0.0090332 0 0.498545 0 1.10243V54.8974C0 55.5013 0.489622 55.9908 1.09339 55.9908H41.9863C42.5901 55.9908 43.0797 55.5013 43.0797 54.8974V40.0037H43.8148C47.4268 40.0037 50.8867 38.89 53.8205 36.7828L55.5263 35.5577C56.0167 35.2054 56.1288 34.5222 55.7765 34.0317C55.4242 33.5414 54.7412 33.4291 54.2505 33.7815ZM38.8999 39.8386L38.8912 39.8536L36.2729 41.7647L36.6188 38.5415L36.7915 38.2425C37.278 38.9979 38.0224 39.5719 38.8999 39.8386ZM51.1404 13.3892L53.413 14.7013L43.422 32.0061C42.9493 32.2238 42.4239 32.3461 41.8702 32.3461H40.1957L51.1404 13.3892ZM38.7523 30.4726C38.7522 30.4729 38.7519 30.4732 38.7517 30.4734L35.9204 35.3774C35.7404 35.689 35.4475 35.9008 35.0952 35.9739C34.7431 36.0471 34.3897 35.9693 34.1006 35.755C33.6953 35.4544 33.5121 34.944 33.634 34.4543L35.252 27.9517C35.6807 26.2287 36.5723 24.6559 37.8303 23.4031C39.6128 21.6279 41.9628 20.6292 44.4691 20.5706L38.7523 30.4726ZM2.18679 53.804V2.19582H40.8929V18.9973C39.1783 19.5734 37.606 20.5403 36.2873 21.8535C34.7468 23.3876 33.6551 25.3137 33.13 27.4236L32.8201 28.6696H9.76335C9.15957 28.6696 8.66995 29.1591 8.66995 29.763C8.66995 30.3669 9.15957 30.8564 9.76335 30.8564H32.2759L31.512 33.9261C31.1761 35.2759 31.6811 36.6833 32.7985 37.5117C33.2895 37.8757 33.8644 38.0954 34.46 38.1623L33.9397 43.0108H23.8317C23.2279 43.0108 22.7383 43.5003 22.7383 44.1042C22.7383 44.708 23.2279 45.1976 23.8317 45.1976H34.9221C35.1492 45.1976 35.3757 45.1268 35.5668 44.9873L40.3672 41.4836C40.4903 41.3938 40.5932 41.2791 40.6695 41.1471L40.893 40.76V53.8039H2.18679V53.804Z" fill="url(#paint4_linear)"/>
<defs>
<linearGradient id="paint0_linear" x1="16.7845" y1="4.71062" x2="30.7781" y2="59.4157" gradientUnits="userSpaceOnUse">
<stop stop-color="#FF9302"/>
<stop offset="0.916667" stop-color="#ED1B23"/>
</linearGradient>
<linearGradient id="paint1_linear" x1="16.7845" y1="4.71062" x2="30.7781" y2="59.4157" gradientUnits="userSpaceOnUse">
<stop stop-color="#FF9302"/>
<stop offset="0.916667" stop-color="#ED1B23"/>
</linearGradient>
<linearGradient id="paint2_linear" x1="16.7845" y1="4.71062" x2="30.7781" y2="59.4157" gradientUnits="userSpaceOnUse">
<stop stop-color="#FF9302"/>
<stop offset="0.916667" stop-color="#ED1B23"/>
</linearGradient>
<linearGradient id="paint3_linear" x1="16.7845" y1="4.71062" x2="30.7781" y2="59.4157" gradientUnits="userSpaceOnUse">
<stop stop-color="#FF9302"/>
<stop offset="0.916667" stop-color="#ED1B23"/>
</linearGradient>
<linearGradient id="paint4_linear" x1="16.7845" y1="4.71062" x2="30.7781" y2="59.4157" gradientUnits="userSpaceOnUse">
<stop stop-color="#FF9302"/>
<stop offset="0.916667" stop-color="#ED1B23"/>
</linearGradient>
</defs>
</svg>
