<svg width="56" height="56" viewBox="0 0 56 56" fill="none" xmlns="http://www.w3.org/2000/svg">
<g clip-path="url(#clip0)">
<path d="M33.6511 16.4199H9.76653C9.16256 16.4199 8.67278 16.9097 8.67278 17.5137C8.67278 18.1176 9.16256 18.6074 9.76653 18.6074H33.6511C34.255 18.6074 34.7448 18.1176 34.7448 17.5137C34.7448 16.9097 34.255 16.4199 33.6511 16.4199Z" fill="black"/>
<path d="M33.6511 16.4199H9.76653C9.16256 16.4199 8.67278 16.9097 8.67278 17.5137C8.67278 18.1176 9.16256 18.6074 9.76653 18.6074H33.6511C34.255 18.6074 34.7448 18.1176 34.7448 17.5137C34.7448 16.9097 34.255 16.4199 33.6511 16.4199Z" fill="url(#paint0_linear)"/>
<path d="M28.0139 12.4824C28.6179 12.4824 29.1076 11.9926 29.1076 11.3887C29.1076 10.7847 28.6179 10.2949 28.0139 10.2949H15.4037C14.7997 10.2949 14.31 10.7847 14.31 11.3887C14.31 11.9926 14.7997 12.4824 15.4037 12.4824H28.0139Z" fill="black"/>
<path d="M28.0139 12.4824C28.6179 12.4824 29.1076 11.9926 29.1076 11.3887C29.1076 10.7847 28.6179 10.2949 28.0139 10.2949H15.4037C14.7997 10.2949 14.31 10.7847 14.31 11.3887C14.31 11.9926 14.7997 12.4824 15.4037 12.4824H28.0139Z" fill="url(#paint1_linear)"/>
<path d="M33.6511 24.7324C34.255 24.7324 34.7448 24.2426 34.7448 23.6387C34.7448 23.0347 34.255 22.5449 33.6511 22.5449H9.76653C9.16256 22.5449 8.67278 23.0347 8.67278 23.6387C8.67278 24.2426 9.16256 24.7324 9.76653 24.7324H33.6511Z" fill="black"/>
<path d="M33.6511 24.7324C34.255 24.7324 34.7448 24.2426 34.7448 23.6387C34.7448 23.0347 34.255 22.5449 33.6511 22.5449H9.76653C9.16256 22.5449 8.67278 23.0347 8.67278 23.6387C8.67278 24.2426 9.16256 24.7324 9.76653 24.7324H33.6511Z" fill="url(#paint2_linear)"/>
<path d="M12.3006 36.7773C13.0949 36.7773 13.741 37.3183 13.741 37.9833C13.741 38.5873 14.2308 39.0771 14.8348 39.0771C15.4387 39.0771 15.9285 38.5873 15.9285 37.9833C15.9285 36.4686 14.8619 35.1828 13.3944 34.7478V34.5957C13.3944 33.9918 12.9046 33.502 12.3006 33.502C11.6967 33.502 11.2069 33.9918 11.2069 34.5957V34.7478C9.73941 35.1828 8.67278 36.4686 8.67278 37.9833C8.67278 39.8545 10.3003 41.3769 12.3006 41.3769C13.0949 41.3769 13.741 41.9179 13.741 42.5829C13.741 43.2479 13.0949 43.7889 12.3006 43.7889C11.5064 43.7889 10.8603 43.2479 10.8603 42.5829C10.8603 41.9789 10.3705 41.4891 9.76653 41.4891C9.16256 41.4891 8.67278 41.9789 8.67278 42.5829C8.67278 44.0976 9.73941 45.3835 11.2069 45.8185V45.9705C11.2069 46.5745 11.6967 47.0643 12.3006 47.0643C12.9046 47.0643 13.3944 46.5745 13.3944 45.9705V45.8185C14.8619 45.3834 15.9285 44.0976 15.9285 42.5829C15.9285 40.7117 14.301 39.1894 12.3006 39.1894C11.5064 39.1894 10.8603 38.6483 10.8603 37.9833C10.8603 37.3183 11.5064 36.7773 12.3006 36.7773Z" fill="black"/>
<path d="M12.3006 36.7773C13.0949 36.7773 13.741 37.3183 13.741 37.9833C13.741 38.5873 14.2308 39.0771 14.8348 39.0771C15.4387 39.0771 15.9285 38.5873 15.9285 37.9833C15.9285 36.4686 14.8619 35.1828 13.3944 34.7478V34.5957C13.3944 33.9918 12.9046 33.502 12.3006 33.502C11.6967 33.502 11.2069 33.9918 11.2069 34.5957V34.7478C9.73941 35.1828 8.67278 36.4686 8.67278 37.9833C8.67278 39.8545 10.3003 41.3769 12.3006 41.3769C13.0949 41.3769 13.741 41.9179 13.741 42.5829C13.741 43.2479 13.0949 43.7889 12.3006 43.7889C11.5064 43.7889 10.8603 43.2479 10.8603 42.5829C10.8603 41.9789 10.3705 41.4891 9.76653 41.4891C9.16256 41.4891 8.67278 41.9789 8.67278 42.5829C8.67278 44.0976 9.73941 45.3835 11.2069 45.8185V45.9705C11.2069 46.5745 11.6967 47.0643 12.3006 47.0643C12.9046 47.0643 13.3944 46.5745 13.3944 45.9705V45.8185C14.8619 45.3834 15.9285 44.0976 15.9285 42.5829C15.9285 40.7117 14.301 39.1894 12.3006 39.1894C11.5064 39.1894 10.8603 38.6483 10.8603 37.9833C10.8603 37.3183 11.5064 36.7773 12.3006 36.7773Z" fill="url(#paint3_linear)"/>
<path d="M22.8025 29.7637C22.8025 29.1597 22.3127 28.6699 21.7087 28.6699H9.76653C9.16256 28.6699 8.67278 29.1597 8.67278 29.7637C8.67278 30.3676 9.16256 30.8574 9.76653 30.8574H21.7087C22.3128 30.8574 22.8025 30.3676 22.8025 29.7637Z" fill="black"/>
<path d="M22.8025 29.7637C22.8025 29.1597 22.3127 28.6699 21.7087 28.6699H9.76653C9.16256 28.6699 8.67278 29.1597 8.67278 29.7637C8.67278 30.3676 9.16256 30.8574 9.76653 30.8574H21.7087C22.3128 30.8574 22.8025 30.3676 22.8025 29.7637Z" fill="url(#paint4_linear)"/>
<path d="M52.857 36.6699L49.7073 29.1107C49.5375 28.7031 49.1393 28.4376 48.6978 28.4376H43.0938V20.5626C43.0938 19.9586 42.604 19.4689 42 19.4689C41.396 19.4689 40.9062 19.9586 40.9062 20.5626V28.4376H32.2398C31.7983 28.4376 31.4 28.7032 31.2303 29.1107L28.0806 36.6699C26.2409 37.4072 24.9376 39.2074 24.9376 41.3073V50.5312C24.9376 51.1352 25.4274 51.625 26.0314 51.625H26.9064V52.2812C26.9064 52.827 27.0255 53.3451 27.2375 53.8125H2.1875V2.1875H40.9062V10.7188C40.9062 11.3227 41.396 11.8125 42 11.8125C42.604 11.8125 43.0938 11.3227 43.0938 10.7188V1.09375C43.0938 0.489781 42.604 0 42 0H1.09375C0.489781 0 0 0.489781 0 1.09375V54.9062C0 55.5102 0.489781 56 1.09375 56H42C42.604 56 43.0938 55.5102 43.0938 54.9062V51.625H45.7188V52.2812C45.7188 54.3318 47.3869 56 49.4375 56C51.4881 56 53.1562 54.3318 53.1562 52.2812V51.625H54.9062C55.5102 51.625 56 51.1352 56 50.5312V41.3073C56 39.2073 54.6967 37.4072 52.857 36.6699ZM32.969 30.625H47.9686L50.3384 36.3125H30.5992L32.969 30.625ZM29.0938 52.2812V51.625H32.1562V52.2812C32.1562 53.1256 31.4694 53.8125 30.625 53.8125C29.7806 53.8125 29.0938 53.1256 29.0938 52.2812ZM40.9062 53.8125H34.0126C34.2246 53.3451 34.3438 52.827 34.3438 52.2812V51.625H40.9062V53.8125ZM50.9688 52.2812C50.9688 53.1256 50.2819 53.8125 49.4375 53.8125C48.5931 53.8125 47.9062 53.1256 47.9062 52.2812V51.625H50.9688V52.2812ZM53.8125 49.4375H27.125V41.3073C27.125 39.7595 28.3845 38.5 29.9323 38.5H51.0052C52.553 38.5 53.8125 39.7595 53.8125 41.3073V49.4375Z" fill="black"/>
<path d="M52.857 36.6699L49.7073 29.1107C49.5375 28.7031 49.1393 28.4376 48.6978 28.4376H43.0938V20.5626C43.0938 19.9586 42.604 19.4689 42 19.4689C41.396 19.4689 40.9062 19.9586 40.9062 20.5626V28.4376H32.2398C31.7983 28.4376 31.4 28.7032 31.2303 29.1107L28.0806 36.6699C26.2409 37.4072 24.9376 39.2074 24.9376 41.3073V50.5312C24.9376 51.1352 25.4274 51.625 26.0314 51.625H26.9064V52.2812C26.9064 52.827 27.0255 53.3451 27.2375 53.8125H2.1875V2.1875H40.9062V10.7188C40.9062 11.3227 41.396 11.8125 42 11.8125C42.604 11.8125 43.0938 11.3227 43.0938 10.7188V1.09375C43.0938 0.489781 42.604 0 42 0H1.09375C0.489781 0 0 0.489781 0 1.09375V54.9062C0 55.5102 0.489781 56 1.09375 56H42C42.604 56 43.0938 55.5102 43.0938 54.9062V51.625H45.7188V52.2812C45.7188 54.3318 47.3869 56 49.4375 56C51.4881 56 53.1562 54.3318 53.1562 52.2812V51.625H54.9062C55.5102 51.625 56 51.1352 56 50.5312V41.3073C56 39.2073 54.6967 37.4072 52.857 36.6699ZM32.969 30.625H47.9686L50.3384 36.3125H30.5992L32.969 30.625ZM29.0938 52.2812V51.625H32.1562V52.2812C32.1562 53.1256 31.4694 53.8125 30.625 53.8125C29.7806 53.8125 29.0938 53.1256 29.0938 52.2812ZM40.9062 53.8125H34.0126C34.2246 53.3451 34.3438 52.827 34.3438 52.2812V51.625H40.9062V53.8125ZM50.9688 52.2812C50.9688 53.1256 50.2819 53.8125 49.4375 53.8125C48.5931 53.8125 47.9062 53.1256 47.9062 52.2812V51.625H50.9688V52.2812ZM53.8125 49.4375H27.125V41.3073C27.125 39.7595 28.3845 38.5 29.9323 38.5H51.0052C52.553 38.5 53.8125 39.7595 53.8125 41.3073V49.4375Z" fill="url(#paint5_linear)"/>
<path d="M32.5938 40.6875C30.7845 40.6875 29.3125 42.1595 29.3125 43.9688C29.3125 45.778 30.7845 47.25 32.5938 47.25C34.403 47.25 35.875 45.778 35.875 43.9688C35.875 42.1595 34.403 40.6875 32.5938 40.6875ZM32.5938 45.0625C31.9907 45.0625 31.5 44.5718 31.5 43.9688C31.5 43.3657 31.9907 42.875 32.5938 42.875C33.1968 42.875 33.6875 43.3657 33.6875 43.9688C33.6875 44.5718 33.1968 45.0625 32.5938 45.0625Z" fill="black"/>
<path d="M32.5938 40.6875C30.7845 40.6875 29.3125 42.1595 29.3125 43.9688C29.3125 45.778 30.7845 47.25 32.5938 47.25C34.403 47.25 35.875 45.778 35.875 43.9688C35.875 42.1595 34.403 40.6875 32.5938 40.6875ZM32.5938 45.0625C31.9907 45.0625 31.5 44.5718 31.5 43.9688C31.5 43.3657 31.9907 42.875 32.5938 42.875C33.1968 42.875 33.6875 43.3657 33.6875 43.9688C33.6875 44.5718 33.1968 45.0625 32.5938 45.0625Z" fill="url(#paint6_linear)"/>
<path d="M48.0156 40.6875C46.2063 40.6875 44.7344 42.1595 44.7344 43.9688C44.7344 45.778 46.2063 47.25 48.0156 47.25C49.8249 47.25 51.2969 45.778 51.2969 43.9688C51.2969 42.1595 49.8249 40.6875 48.0156 40.6875ZM48.0156 45.0625C47.4125 45.0625 46.9219 44.5718 46.9219 43.9688C46.9219 43.3657 47.4125 42.875 48.0156 42.875C48.6187 42.875 49.1094 43.3657 49.1094 43.9688C49.1094 44.5718 48.6187 45.0625 48.0156 45.0625Z" fill="black"/>
<path d="M48.0156 40.6875C46.2063 40.6875 44.7344 42.1595 44.7344 43.9688C44.7344 45.778 46.2063 47.25 48.0156 47.25C49.8249 47.25 51.2969 45.778 51.2969 43.9688C51.2969 42.1595 49.8249 40.6875 48.0156 40.6875ZM48.0156 45.0625C47.4125 45.0625 46.9219 44.5718 46.9219 43.9688C46.9219 43.3657 47.4125 42.875 48.0156 42.875C48.6187 42.875 49.1094 43.3657 49.1094 43.9688C49.1094 44.5718 48.6187 45.0625 48.0156 45.0625Z" fill="url(#paint7_linear)"/>
<path d="M41.4531 42.875H39.1141C38.5102 42.875 38.0204 43.3648 38.0204 43.9688C38.0204 44.5727 38.5102 45.0625 39.1141 45.0625H41.4531C42.0571 45.0625 42.5469 44.5727 42.5469 43.9688C42.5469 43.3648 42.0571 42.875 41.4531 42.875Z" fill="black"/>
<path d="M41.4531 42.875H39.1141C38.5102 42.875 38.0204 43.3648 38.0204 43.9688C38.0204 44.5727 38.5102 45.0625 39.1141 45.0625H41.4531C42.0571 45.0625 42.5469 44.5727 42.5469 43.9688C42.5469 43.3648 42.0571 42.875 41.4531 42.875Z" fill="url(#paint8_linear)"/>
<path d="M42 14.5469C41.7111 14.5469 41.4302 14.6638 41.2267 14.8673C41.0233 15.0709 40.9062 15.353 40.9062 15.6406C40.9062 15.9283 41.0232 16.2105 41.2267 16.4138C41.4302 16.6172 41.7123 16.7344 42 16.7344C42.2877 16.7344 42.5698 16.6173 42.7732 16.4138C42.9767 16.2105 43.0938 15.9283 43.0938 15.6406C43.0938 15.353 42.9767 15.0708 42.7732 14.8673C42.5698 14.6638 42.2877 14.5469 42 14.5469Z" fill="black"/>
<path d="M42 14.5469C41.7111 14.5469 41.4302 14.6638 41.2267 14.8673C41.0233 15.0709 40.9062 15.353 40.9062 15.6406C40.9062 15.9283 41.0232 16.2105 41.2267 16.4138C41.4302 16.6172 41.7123 16.7344 42 16.7344C42.2877 16.7344 42.5698 16.6173 42.7732 16.4138C42.9767 16.2105 43.0938 15.9283 43.0938 15.6406C43.0938 15.353 42.9767 15.0708 42.7732 14.8673C42.5698 14.6638 42.2877 14.5469 42 14.5469Z" fill="url(#paint9_linear)"/>
</g>
<defs>
<linearGradient id="paint0_linear" x1="16.7846" y1="4.70312" x2="30.7867" y2="59.4238" gradientUnits="userSpaceOnUse">
<stop stop-color="#FF9302"/>
<stop offset="0.916667" stop-color="#ED1B23"/>
</linearGradient>
<linearGradient id="paint1_linear" x1="16.7846" y1="4.70312" x2="30.7867" y2="59.4238" gradientUnits="userSpaceOnUse">
<stop stop-color="#FF9302"/>
<stop offset="0.916667" stop-color="#ED1B23"/>
</linearGradient>
<linearGradient id="paint2_linear" x1="16.7846" y1="4.70312" x2="30.7867" y2="59.4238" gradientUnits="userSpaceOnUse">
<stop stop-color="#FF9302"/>
<stop offset="0.916667" stop-color="#ED1B23"/>
</linearGradient>
<linearGradient id="paint3_linear" x1="16.7846" y1="4.70312" x2="30.7867" y2="59.4238" gradientUnits="userSpaceOnUse">
<stop stop-color="#FF9302"/>
<stop offset="0.916667" stop-color="#ED1B23"/>
</linearGradient>
<linearGradient id="paint4_linear" x1="16.7846" y1="4.70312" x2="30.7867" y2="59.4238" gradientUnits="userSpaceOnUse">
<stop stop-color="#FF9302"/>
<stop offset="0.916667" stop-color="#ED1B23"/>
</linearGradient>
<linearGradient id="paint5_linear" x1="16.7846" y1="4.70312" x2="30.7867" y2="59.4238" gradientUnits="userSpaceOnUse">
<stop stop-color="#FF9302"/>
<stop offset="0.916667" stop-color="#ED1B23"/>
</linearGradient>
<linearGradient id="paint6_linear" x1="16.7846" y1="4.70312" x2="30.7867" y2="59.4238" gradientUnits="userSpaceOnUse">
<stop stop-color="#FF9302"/>
<stop offset="0.916667" stop-color="#ED1B23"/>
</linearGradient>
<linearGradient id="paint7_linear" x1="16.7846" y1="4.70312" x2="30.7867" y2="59.4238" gradientUnits="userSpaceOnUse">
<stop stop-color="#FF9302"/>
<stop offset="0.916667" stop-color="#ED1B23"/>
</linearGradient>
<linearGradient id="paint8_linear" x1="16.7846" y1="4.70312" x2="30.7867" y2="59.4238" gradientUnits="userSpaceOnUse">
<stop stop-color="#FF9302"/>
<stop offset="0.916667" stop-color="#ED1B23"/>
</linearGradient>
<linearGradient id="paint9_linear" x1="16.7846" y1="4.70312" x2="30.7867" y2="59.4238" gradientUnits="userSpaceOnUse">
<stop stop-color="#FF9302"/>
<stop offset="0.916667" stop-color="#ED1B23"/>
</linearGradient>
<clipPath id="clip0">
<rect width="56" height="56" fill="white"/>
</clipPath>
</defs>
</svg>
