<svg width="56" height="56" viewBox="0 0 56 56" fill="none" xmlns="http://www.w3.org/2000/svg">
<g clip-path="url(#clip0)">
<path d="M30.9427 23.7272C31.737 23.7272 32.3831 24.2682 32.3831 24.9333C32.3831 25.5373 32.8729 26.0271 33.4769 26.0271C34.0808 26.0271 34.5706 25.5373 34.5706 24.9333C34.5706 23.4185 33.504 22.1325 32.0365 21.6975V21.5455C32.0365 20.9415 31.5467 20.4517 30.9427 20.4517C30.3387 20.4517 29.8489 20.9415 29.8489 21.5455V21.6975C28.3813 22.1326 27.3148 23.4185 27.3148 24.9333C27.3148 26.8045 28.9422 28.3268 30.9427 28.3268C31.737 28.3268 32.3831 28.8679 32.3831 29.533C32.3831 30.198 31.737 30.739 30.9427 30.739C30.1485 30.739 29.5024 30.198 29.5024 29.533C29.5024 28.929 29.0126 28.4392 28.4086 28.4392C27.8046 28.4392 27.3148 28.929 27.3148 29.533C27.3148 31.0478 28.3813 32.3336 29.8489 32.7686V32.9206C29.8489 33.5246 30.3387 34.0144 30.9427 34.0144C31.5467 34.0144 32.0365 33.5246 32.0365 32.9206V32.7686C33.504 32.3336 34.5706 31.0478 34.5706 29.533C34.5706 27.6617 32.9431 26.1393 30.9427 26.1393C30.1485 26.1393 29.5024 25.5983 29.5024 24.9333C29.5024 24.2682 30.1485 23.7272 30.9427 23.7272Z" fill="black"/>
<path d="M30.9427 23.7272C31.737 23.7272 32.3831 24.2682 32.3831 24.9333C32.3831 25.5373 32.8729 26.0271 33.4769 26.0271C34.0808 26.0271 34.5706 25.5373 34.5706 24.9333C34.5706 23.4185 33.504 22.1325 32.0365 21.6975V21.5455C32.0365 20.9415 31.5467 20.4517 30.9427 20.4517C30.3387 20.4517 29.8489 20.9415 29.8489 21.5455V21.6975C28.3813 22.1326 27.3148 23.4185 27.3148 24.9333C27.3148 26.8045 28.9422 28.3268 30.9427 28.3268C31.737 28.3268 32.3831 28.8679 32.3831 29.533C32.3831 30.198 31.737 30.739 30.9427 30.739C30.1485 30.739 29.5024 30.198 29.5024 29.533C29.5024 28.929 29.0126 28.4392 28.4086 28.4392C27.8046 28.4392 27.3148 28.929 27.3148 29.533C27.3148 31.0478 28.3813 32.3336 29.8489 32.7686V32.9206C29.8489 33.5246 30.3387 34.0144 30.9427 34.0144C31.5467 34.0144 32.0365 33.5246 32.0365 32.9206V32.7686C33.504 32.3336 34.5706 31.0478 34.5706 29.533C34.5706 27.6617 32.9431 26.1393 30.9427 26.1393C30.1485 26.1393 29.5024 25.5983 29.5024 24.9333C29.5024 24.2682 30.1485 23.7272 30.9427 23.7272Z" fill="url(#paint0_linear)"/>
<path d="M55.8354 36.5374C55.4065 35.0502 54.1996 33.9266 52.6858 33.6046C51.7164 33.3982 50.7082 33.5488 49.8471 34.0064C50.3457 30.9061 50.0838 27.699 49.058 24.7096C48.8618 24.1382 48.2396 23.8345 47.6683 24.03C47.0969 24.2261 46.7927 24.8483 46.9887 25.4197C48.2004 28.9501 48.2103 32.823 47.0232 36.3577L38.3067 44.0991C37.7689 44.5767 37.1791 44.9816 36.5523 45.3104C36.7295 44.5934 36.7174 43.8342 36.5046 43.113C36.1685 41.9739 35.3613 41.0265 34.2903 40.5135L26.5686 36.8151C23.1928 35.1981 19.2416 35.0111 15.7281 36.301L14.9432 36.5892C12.7646 30.4348 14.281 23.6095 18.9465 18.9441L26.6684 11.2223H35.2171L41.7598 17.765C42.187 18.192 42.8794 18.192 43.3067 17.765C43.7338 17.3379 43.7338 16.6453 43.3067 16.2181L37.0553 9.96699L39.3152 3.46356C39.6181 2.5917 39.2836 1.64054 38.5015 1.15031C37.7197 0.660182 36.7175 0.773826 36.0649 1.42616L36.0514 1.43961C35.5994 1.89189 34.8635 1.89189 34.4114 1.43961C32.4917 -0.479871 29.3684 -0.479871 27.4487 1.43961C27.2297 1.6587 26.9384 1.77924 26.6287 1.77924C26.3189 1.77924 26.0276 1.65859 25.8087 1.43961C25.1553 0.786296 24.1527 0.673198 23.3702 1.16486C22.5878 1.6564 22.2545 2.60887 22.5598 3.48106L24.8295 9.96765L17.3996 17.3974C14.65 20.1472 12.8221 23.6141 12.114 27.4232C11.4929 30.7636 11.7619 34.1697 12.888 37.344L11.1636 37.9771C10.5898 37.2311 9.68909 36.749 8.67744 36.749H3.13556C1.40661 36.7491 0 38.1557 0 39.8846V52.8641C0 54.593 1.40661 55.9996 3.13556 55.9996H31.9638C36.4919 55.9996 40.774 54.2616 44.0211 51.1057L54.7313 40.6967C55.8412 39.6182 56.2642 38.0245 55.8354 36.5374ZM26.6286 3.96692C27.5226 3.96692 28.3632 3.61876 28.9955 2.98656C30.0622 1.9199 31.7978 1.9199 32.8645 2.98656C33.4967 3.61876 34.3373 3.96692 35.2314 3.96692C35.8662 3.96692 36.4739 3.79147 36.9994 3.46334L35.0634 9.03487H26.8207L24.874 3.47165C25.3964 3.79432 25.9991 3.96692 26.6286 3.96692ZM2.18757 52.8642V39.8846C2.18757 39.3618 2.61284 38.9366 3.13556 38.9366H8.67734C9.20006 38.9366 9.62532 39.3618 9.62532 39.8846V52.8641C9.62532 53.3868 9.20006 53.8121 8.67734 53.8121H3.13556C2.61284 53.8122 2.18757 53.3869 2.18757 52.8642ZM53.2067 39.1281L42.4964 49.5371C39.6598 52.2939 35.9193 53.8122 31.9638 53.8122H11.666C11.7612 53.5129 11.8129 53.1945 11.8129 52.8642V40.0692L16.482 38.3548C19.4448 37.267 22.777 37.4247 25.6237 38.7883L33.3454 42.4867C33.8661 42.7361 34.243 43.1785 34.4064 43.7324C34.5698 44.2863 34.4935 44.8626 34.1915 45.3548C33.7063 46.1455 32.7498 46.5012 31.8658 46.2204L21.6076 42.9583C21.0321 42.7754 20.4169 43.0935 20.2337 43.6693C20.0507 44.2449 20.3689 44.8601 20.9447 45.0432L31.2029 48.3052C31.6254 48.4395 32.0556 48.504 32.4803 48.504C32.5315 48.504 32.5825 48.501 32.6334 48.4991C35.2641 48.4613 37.7891 47.4847 39.7591 45.735L50.4899 36.2044C50.9621 35.7852 51.613 35.6132 52.2305 35.7445C52.9636 35.9004 53.5254 36.4235 53.7331 37.1438C53.9412 37.8638 53.7443 38.6056 53.2067 39.1281Z" fill="black"/>
<path d="M55.8354 36.5374C55.4065 35.0502 54.1996 33.9266 52.6858 33.6046C51.7164 33.3982 50.7082 33.5488 49.8471 34.0064C50.3457 30.9061 50.0838 27.699 49.058 24.7096C48.8618 24.1382 48.2396 23.8345 47.6683 24.03C47.0969 24.2261 46.7927 24.8483 46.9887 25.4197C48.2004 28.9501 48.2103 32.823 47.0232 36.3577L38.3067 44.0991C37.7689 44.5767 37.1791 44.9816 36.5523 45.3104C36.7295 44.5934 36.7174 43.8342 36.5046 43.113C36.1685 41.9739 35.3613 41.0265 34.2903 40.5135L26.5686 36.8151C23.1928 35.1981 19.2416 35.0111 15.7281 36.301L14.9432 36.5892C12.7646 30.4348 14.281 23.6095 18.9465 18.9441L26.6684 11.2223H35.2171L41.7598 17.765C42.187 18.192 42.8794 18.192 43.3067 17.765C43.7338 17.3379 43.7338 16.6453 43.3067 16.2181L37.0553 9.96699L39.3152 3.46356C39.6181 2.5917 39.2836 1.64054 38.5015 1.15031C37.7197 0.660182 36.7175 0.773826 36.0649 1.42616L36.0514 1.43961C35.5994 1.89189 34.8635 1.89189 34.4114 1.43961C32.4917 -0.479871 29.3684 -0.479871 27.4487 1.43961C27.2297 1.6587 26.9384 1.77924 26.6287 1.77924C26.3189 1.77924 26.0276 1.65859 25.8087 1.43961C25.1553 0.786296 24.1527 0.673198 23.3702 1.16486C22.5878 1.6564 22.2545 2.60887 22.5598 3.48106L24.8295 9.96765L17.3996 17.3974C14.65 20.1472 12.8221 23.6141 12.114 27.4232C11.4929 30.7636 11.7619 34.1697 12.888 37.344L11.1636 37.9771C10.5898 37.2311 9.68909 36.749 8.67744 36.749H3.13556C1.40661 36.7491 0 38.1557 0 39.8846V52.8641C0 54.593 1.40661 55.9996 3.13556 55.9996H31.9638C36.4919 55.9996 40.774 54.2616 44.0211 51.1057L54.7313 40.6967C55.8412 39.6182 56.2642 38.0245 55.8354 36.5374ZM26.6286 3.96692C27.5226 3.96692 28.3632 3.61876 28.9955 2.98656C30.0622 1.9199 31.7978 1.9199 32.8645 2.98656C33.4967 3.61876 34.3373 3.96692 35.2314 3.96692C35.8662 3.96692 36.4739 3.79147 36.9994 3.46334L35.0634 9.03487H26.8207L24.874 3.47165C25.3964 3.79432 25.9991 3.96692 26.6286 3.96692ZM2.18757 52.8642V39.8846C2.18757 39.3618 2.61284 38.9366 3.13556 38.9366H8.67734C9.20006 38.9366 9.62532 39.3618 9.62532 39.8846V52.8641C9.62532 53.3868 9.20006 53.8121 8.67734 53.8121H3.13556C2.61284 53.8122 2.18757 53.3869 2.18757 52.8642ZM53.2067 39.1281L42.4964 49.5371C39.6598 52.2939 35.9193 53.8122 31.9638 53.8122H11.666C11.7612 53.5129 11.8129 53.1945 11.8129 52.8642V40.0692L16.482 38.3548C19.4448 37.267 22.777 37.4247 25.6237 38.7883L33.3454 42.4867C33.8661 42.7361 34.243 43.1785 34.4064 43.7324C34.5698 44.2863 34.4935 44.8626 34.1915 45.3548C33.7063 46.1455 32.7498 46.5012 31.8658 46.2204L21.6076 42.9583C21.0321 42.7754 20.4169 43.0935 20.2337 43.6693C20.0507 44.2449 20.3689 44.8601 20.9447 45.0432L31.2029 48.3052C31.6254 48.4395 32.0556 48.504 32.4803 48.504C32.5315 48.504 32.5825 48.501 32.6334 48.4991C35.2641 48.4613 37.7891 47.4847 39.7591 45.735L50.4899 36.2044C50.9621 35.7852 51.613 35.6132 52.2305 35.7445C52.9636 35.9004 53.5254 36.4235 53.7331 37.1438C53.9412 37.8638 53.7443 38.6056 53.2067 39.1281Z" fill="url(#paint1_linear)"/>
<path d="M45.8011 21.765C46.0887 21.765 46.3709 21.6491 46.5742 21.4446C46.7777 21.2411 46.8948 20.9599 46.8948 20.6713C46.8948 20.3836 46.7778 20.1025 46.5742 19.898C46.3709 19.6947 46.0887 19.5775 45.8011 19.5775C45.5133 19.5775 45.2323 19.6946 45.0278 19.898C44.8243 20.1025 44.7073 20.3836 44.7073 20.6713C44.7073 20.96 44.8242 21.2411 45.0278 21.4446C45.2311 21.6492 45.5133 21.765 45.8011 21.765Z" fill="black"/>
<path d="M45.8011 21.765C46.0887 21.765 46.3709 21.6491 46.5742 21.4446C46.7777 21.2411 46.8948 20.9599 46.8948 20.6713C46.8948 20.3836 46.7778 20.1025 46.5742 19.898C46.3709 19.6947 46.0887 19.5775 45.8011 19.5775C45.5133 19.5775 45.2323 19.6946 45.0278 19.898C44.8243 20.1025 44.7073 20.3836 44.7073 20.6713C44.7073 20.96 44.8242 21.2411 45.0278 21.4446C45.2311 21.6492 45.5133 21.765 45.8011 21.765Z" fill="url(#paint2_linear)"/>
</g>
<defs>
<linearGradient id="paint0_linear" x1="16.7846" y1="4.70309" x2="30.7865" y2="59.4235" gradientUnits="userSpaceOnUse">
<stop stop-color="#FF9302"/>
<stop offset="0.916667" stop-color="#ED1B23"/>
</linearGradient>
<linearGradient id="paint1_linear" x1="16.7846" y1="4.70309" x2="30.7865" y2="59.4235" gradientUnits="userSpaceOnUse">
<stop stop-color="#FF9302"/>
<stop offset="0.916667" stop-color="#ED1B23"/>
</linearGradient>
<linearGradient id="paint2_linear" x1="16.7846" y1="4.70309" x2="30.7865" y2="59.4235" gradientUnits="userSpaceOnUse">
<stop stop-color="#FF9302"/>
<stop offset="0.916667" stop-color="#ED1B23"/>
</linearGradient>
<clipPath id="clip0">
<rect width="56" height="56" fill="white"/>
</clipPath>
</defs>
</svg>
