<svg width="56" height="56" viewBox="0 0 56 56" fill="none" xmlns="http://www.w3.org/2000/svg">
<g clip-path="url(#clip0)">
<path d="M9.76653 18.6074H33.6511C34.2552 18.6074 34.7448 18.1177 34.7448 17.5137C34.7448 16.9096 34.2552 16.4199 33.6511 16.4199H9.76653C9.16245 16.4199 8.67278 16.9096 8.67278 17.5137C8.67278 18.1177 9.16245 18.6074 9.76653 18.6074Z" fill="black"/>
<path d="M9.76653 18.6074H33.6511C34.2552 18.6074 34.7448 18.1177 34.7448 17.5137C34.7448 16.9096 34.2552 16.4199 33.6511 16.4199H9.76653C9.16245 16.4199 8.67278 16.9096 8.67278 17.5137C8.67278 18.1177 9.16245 18.6074 9.76653 18.6074Z" fill="url(#paint0_linear)"/>
<path d="M15.4037 12.4824H28.0139C28.618 12.4824 29.1076 11.9927 29.1076 11.3887C29.1076 10.7846 28.618 10.2949 28.0139 10.2949H15.4037C14.7996 10.2949 14.31 10.7846 14.31 11.3887C14.31 11.9927 14.7996 12.4824 15.4037 12.4824Z" fill="black"/>
<path d="M15.4037 12.4824H28.0139C28.618 12.4824 29.1076 11.9927 29.1076 11.3887C29.1076 10.7846 28.618 10.2949 28.0139 10.2949H15.4037C14.7996 10.2949 14.31 10.7846 14.31 11.3887C14.31 11.9927 14.7996 12.4824 15.4037 12.4824Z" fill="url(#paint1_linear)"/>
<path d="M9.76653 24.7324H33.6511C34.2552 24.7324 34.7448 24.2427 34.7448 23.6387C34.7448 23.0346 34.2552 22.5449 33.6511 22.5449H9.76653C9.16245 22.5449 8.67278 23.0346 8.67278 23.6387C8.67278 24.2427 9.16245 24.7324 9.76653 24.7324Z" fill="black"/>
<path d="M9.76653 24.7324H33.6511C34.2552 24.7324 34.7448 24.2427 34.7448 23.6387C34.7448 23.0346 34.2552 22.5449 33.6511 22.5449H9.76653C9.16245 22.5449 8.67278 23.0346 8.67278 23.6387C8.67278 24.2427 9.16245 24.7324 9.76653 24.7324Z" fill="url(#paint2_linear)"/>
<path d="M12.3006 36.7773C13.0948 36.7773 13.7409 37.3183 13.7409 37.9833C13.7409 38.5873 14.2306 39.0771 14.8346 39.0771C15.4387 39.0771 15.9284 38.5873 15.9284 37.9833C15.9284 36.4686 14.8618 35.1828 13.3944 34.7478V34.5957C13.3944 33.9918 12.9047 33.502 12.3006 33.502C11.6966 33.502 11.2069 33.9918 11.2069 34.5957V34.7478C9.73941 35.1828 8.67278 36.4686 8.67278 37.9833C8.67278 39.8545 10.3002 41.3769 12.3006 41.3769C13.0948 41.3769 13.7409 41.9179 13.7409 42.5829C13.7409 43.2479 13.0948 43.7889 12.3006 43.7889C11.5065 43.7889 10.8603 43.2479 10.8603 42.5829C10.8603 41.9789 10.3706 41.4891 9.76653 41.4891C9.16245 41.4891 8.67278 41.9789 8.67278 42.5829C8.67278 44.0976 9.73941 45.3835 11.2069 45.8185V45.9705C11.2069 46.5745 11.6966 47.0643 12.3006 47.0643C12.9047 47.0643 13.3944 46.5745 13.3944 45.9705V45.8185C14.8619 45.3834 15.9284 44.0976 15.9284 42.5829C15.9284 40.7117 14.301 39.1894 12.3006 39.1894C11.5065 39.1894 10.8603 38.6483 10.8603 37.9833C10.8603 37.3183 11.5065 36.7773 12.3006 36.7773Z" fill="black"/>
<path d="M12.3006 36.7773C13.0948 36.7773 13.7409 37.3183 13.7409 37.9833C13.7409 38.5873 14.2306 39.0771 14.8346 39.0771C15.4387 39.0771 15.9284 38.5873 15.9284 37.9833C15.9284 36.4686 14.8618 35.1828 13.3944 34.7478V34.5957C13.3944 33.9918 12.9047 33.502 12.3006 33.502C11.6966 33.502 11.2069 33.9918 11.2069 34.5957V34.7478C9.73941 35.1828 8.67278 36.4686 8.67278 37.9833C8.67278 39.8545 10.3002 41.3769 12.3006 41.3769C13.0948 41.3769 13.7409 41.9179 13.7409 42.5829C13.7409 43.2479 13.0948 43.7889 12.3006 43.7889C11.5065 43.7889 10.8603 43.2479 10.8603 42.5829C10.8603 41.9789 10.3706 41.4891 9.76653 41.4891C9.16245 41.4891 8.67278 41.9789 8.67278 42.5829C8.67278 44.0976 9.73941 45.3835 11.2069 45.8185V45.9705C11.2069 46.5745 11.6966 47.0643 12.3006 47.0643C12.9047 47.0643 13.3944 46.5745 13.3944 45.9705V45.8185C14.8619 45.3834 15.9284 44.0976 15.9284 42.5829C15.9284 40.7117 14.301 39.1894 12.3006 39.1894C11.5065 39.1894 10.8603 38.6483 10.8603 37.9833C10.8603 37.3183 11.5065 36.7773 12.3006 36.7773Z" fill="url(#paint3_linear)"/>
<path d="M21.7087 28.6699H9.76653C9.16245 28.6699 8.67278 29.1597 8.67278 29.7637C8.67278 30.3676 9.16245 30.8574 9.76653 30.8574H21.7087C22.3128 30.8574 22.8025 30.3676 22.8025 29.7637C22.8025 29.1597 22.3128 28.6699 21.7087 28.6699Z" fill="black"/>
<path d="M21.7087 28.6699H9.76653C9.16245 28.6699 8.67278 29.1597 8.67278 29.7637C8.67278 30.3676 9.16245 30.8574 9.76653 30.8574H21.7087C22.3128 30.8574 22.8025 30.3676 22.8025 29.7637C22.8025 29.1597 22.3128 28.6699 21.7087 28.6699Z" fill="url(#paint4_linear)"/>
<path d="M55.6796 37.6487L43.0938 25.0628V1.09375C43.0938 0.489672 42.6041 0 42 0H1.09375C0.489672 0 0 0.489672 0 1.09375V54.9062C0 55.5102 0.489672 56 1.09375 56H52.7629C53.367 56 53.8567 55.5102 53.8567 54.9062V39.5159H54.9062C55.3486 39.5159 55.7475 39.2493 55.9168 38.8407C56.0861 38.432 55.9925 37.9615 55.6796 37.6487ZM2.1875 2.1875H40.9062V22.9012C40.7245 22.7752 40.5078 22.7057 40.2837 22.7057C39.9936 22.7057 39.7154 22.821 39.5103 23.0261L24.8876 37.6487C24.5748 37.9615 24.4813 38.432 24.6506 38.8407C24.8199 39.2493 25.2187 39.5159 25.6611 39.5159H26.7108V53.8125H2.1875V2.1875ZM36.4556 53.8125V44.3284H44.1118V53.8125H36.4556ZM51.6692 53.8125H46.2993V43.2346C46.2993 42.6307 45.8096 42.1409 45.2056 42.1409H35.3618C34.7577 42.1409 34.2681 42.6307 34.2681 43.2346V53.8125H28.8982V39.5159H35.3618C35.9659 39.5159 36.4556 39.0261 36.4556 38.4221C36.4556 37.8182 35.9659 37.3284 35.3618 37.3284H28.3015L40.2836 25.3462L52.2656 37.3284H45.2056C44.6015 37.3284 44.1118 37.8182 44.1118 38.4221C44.1118 39.0261 44.6015 39.5159 45.2056 39.5159H51.6691L51.6692 53.8125Z" fill="black"/>
<path d="M55.6796 37.6487L43.0938 25.0628V1.09375C43.0938 0.489672 42.6041 0 42 0H1.09375C0.489672 0 0 0.489672 0 1.09375V54.9062C0 55.5102 0.489672 56 1.09375 56H52.7629C53.367 56 53.8567 55.5102 53.8567 54.9062V39.5159H54.9062C55.3486 39.5159 55.7475 39.2493 55.9168 38.8407C56.0861 38.432 55.9925 37.9615 55.6796 37.6487ZM2.1875 2.1875H40.9062V22.9012C40.7245 22.7752 40.5078 22.7057 40.2837 22.7057C39.9936 22.7057 39.7154 22.821 39.5103 23.0261L24.8876 37.6487C24.5748 37.9615 24.4813 38.432 24.6506 38.8407C24.8199 39.2493 25.2187 39.5159 25.6611 39.5159H26.7108V53.8125H2.1875V2.1875ZM36.4556 53.8125V44.3284H44.1118V53.8125H36.4556ZM51.6692 53.8125H46.2993V43.2346C46.2993 42.6307 45.8096 42.1409 45.2056 42.1409H35.3618C34.7577 42.1409 34.2681 42.6307 34.2681 43.2346V53.8125H28.8982V39.5159H35.3618C35.9659 39.5159 36.4556 39.0261 36.4556 38.4221C36.4556 37.8182 35.9659 37.3284 35.3618 37.3284H28.3015L40.2836 25.3462L52.2656 37.3284H45.2056C44.6015 37.3284 44.1118 37.8182 44.1118 38.4221C44.1118 39.0261 44.6015 39.5159 45.2056 39.5159H51.6691L51.6692 53.8125Z" fill="url(#paint5_linear)"/>
<path d="M40.2839 37.3286C39.9952 37.3286 39.7141 37.4455 39.5106 37.6491C39.3061 37.8525 39.1902 38.1336 39.1902 38.4223C39.1902 38.71 39.3061 38.9922 39.5106 39.1955C39.7141 39.399 39.9962 39.5161 40.2839 39.5161C40.5716 39.5161 40.8538 39.3991 41.0572 39.1955C41.2606 38.9922 41.3777 38.71 41.3777 38.4223C41.3777 38.1347 41.2606 37.8525 41.0572 37.6491C40.8538 37.4456 40.5716 37.3286 40.2839 37.3286Z" fill="black"/>
<path d="M40.2839 37.3286C39.9952 37.3286 39.7141 37.4455 39.5106 37.6491C39.3061 37.8525 39.1902 38.1336 39.1902 38.4223C39.1902 38.71 39.3061 38.9922 39.5106 39.1955C39.7141 39.399 39.9962 39.5161 40.2839 39.5161C40.5716 39.5161 40.8538 39.3991 41.0572 39.1955C41.2606 38.9922 41.3777 38.71 41.3777 38.4223C41.3777 38.1347 41.2606 37.8525 41.0572 37.6491C40.8538 37.4456 40.5716 37.3286 40.2839 37.3286Z" fill="url(#paint6_linear)"/>
</g>
<defs>
<linearGradient id="paint0_linear" x1="16.7846" y1="4.70312" x2="30.7867" y2="59.4238" gradientUnits="userSpaceOnUse">
<stop stop-color="#FF9302"/>
<stop offset="0.916667" stop-color="#ED1B23"/>
</linearGradient>
<linearGradient id="paint1_linear" x1="16.7846" y1="4.70312" x2="30.7867" y2="59.4238" gradientUnits="userSpaceOnUse">
<stop stop-color="#FF9302"/>
<stop offset="0.916667" stop-color="#ED1B23"/>
</linearGradient>
<linearGradient id="paint2_linear" x1="16.7846" y1="4.70312" x2="30.7867" y2="59.4238" gradientUnits="userSpaceOnUse">
<stop stop-color="#FF9302"/>
<stop offset="0.916667" stop-color="#ED1B23"/>
</linearGradient>
<linearGradient id="paint3_linear" x1="16.7846" y1="4.70312" x2="30.7867" y2="59.4238" gradientUnits="userSpaceOnUse">
<stop stop-color="#FF9302"/>
<stop offset="0.916667" stop-color="#ED1B23"/>
</linearGradient>
<linearGradient id="paint4_linear" x1="16.7846" y1="4.70312" x2="30.7867" y2="59.4238" gradientUnits="userSpaceOnUse">
<stop stop-color="#FF9302"/>
<stop offset="0.916667" stop-color="#ED1B23"/>
</linearGradient>
<linearGradient id="paint5_linear" x1="16.7846" y1="4.70312" x2="30.7867" y2="59.4238" gradientUnits="userSpaceOnUse">
<stop stop-color="#FF9302"/>
<stop offset="0.916667" stop-color="#ED1B23"/>
</linearGradient>
<linearGradient id="paint6_linear" x1="16.7846" y1="4.70312" x2="30.7867" y2="59.4238" gradientUnits="userSpaceOnUse">
<stop stop-color="#FF9302"/>
<stop offset="0.916667" stop-color="#ED1B23"/>
</linearGradient>
<clipPath id="clip0">
<rect width="56" height="56" fill="white"/>
</clipPath>
</defs>
</svg>
