<svg width="56" height="56" viewBox="0 0 56 56" fill="none" xmlns="http://www.w3.org/2000/svg">
<path d="M21 35H22.75V47.25H21V35Z" fill="black"/>
<path d="M21 35H22.75V47.25H21V35Z" fill="url(#paint0_linear)"/>
<path d="M21 49H22.75V50.75H21V49Z" fill="black"/>
<path d="M21 49H22.75V50.75H21V49Z" fill="url(#paint1_linear)"/>
<path d="M8.75 35H10.5V47.25H8.75V35Z" fill="black"/>
<path d="M8.75 35H10.5V47.25H8.75V35Z" fill="url(#paint2_linear)"/>
<path d="M8.75 49H10.5V50.75H8.75V49Z" fill="black"/>
<path d="M8.75 49H10.5V50.75H8.75V49Z" fill="url(#paint3_linear)"/>
<path d="M46.5675 15.0413V15.05L44.625 13.6325V6.8425C45.2037 6.63252 45.6902 6.22582 45.9994 5.69351C46.3087 5.1612 46.421 4.53713 46.3167 3.9304C46.2125 3.32368 45.8983 2.77289 45.4291 2.37433C44.9599 1.97576 44.3656 1.75478 43.75 1.75H38.5C37.8044 1.75208 37.138 2.02931 36.6461 2.52114C36.1543 3.01297 35.8771 3.67945 35.875 4.375C35.875 4.91466 36.0425 5.44102 36.3544 5.88143C36.6663 6.32184 37.1072 6.65459 37.6163 6.83375V8.54L29.54 2.66875C29.0936 2.34053 28.5541 2.16351 28 2.16351C27.4459 2.16351 26.9064 2.34053 26.46 2.66875L9.4325 15.0413C8.92848 15.406 8.5707 15.9381 8.42321 16.5425C8.27572 17.147 8.34814 17.7841 8.6275 18.34L8.785 18.6462C8.95639 18.9901 9.20116 19.2921 9.50203 19.531C9.8029 19.7698 10.1525 19.9398 10.5262 20.0287C10.7237 20.0779 10.9266 20.1014 11.13 20.0987C11.5176 20.099 11.9003 20.0123 12.25 19.845V30.3625L10.3512 27.5188C10.2675 27.4048 10.1581 27.3122 10.032 27.2483C9.90582 27.1845 9.7664 27.1512 9.625 27.1512C9.4836 27.1512 9.34418 27.1845 9.21801 27.2483C9.09185 27.3122 8.98248 27.4048 8.89875 27.5188L5.39875 32.7688C5.30146 32.9103 5.24958 33.0782 5.25 33.25V37.625H2.625C2.39294 37.625 2.17038 37.7172 2.00628 37.8813C1.84219 38.0454 1.75 38.2679 1.75 38.5V42C1.75 42.2321 1.84219 42.4546 2.00628 42.6187C2.17038 42.7828 2.39294 42.875 2.625 42.875H5.25V45.5H2.625C2.39294 45.5 2.17038 45.5922 2.00628 45.7563C1.84219 45.9204 1.75 46.1429 1.75 46.375V49.875C1.75 50.1071 1.84219 50.3296 2.00628 50.4937C2.17038 50.6578 2.39294 50.75 2.625 50.75H5.25V53.375C5.25 53.6071 5.34219 53.8296 5.50628 53.9937C5.67038 54.1578 5.89294 54.25 6.125 54.25H13.125C13.3571 54.25 13.5796 54.1578 13.7437 53.9937C13.9078 53.8296 14 53.6071 14 53.375V50.75H17.5V53.375C17.5 53.6071 17.5922 53.8296 17.7563 53.9937C17.9204 54.1578 18.1429 54.25 18.375 54.25H25.375C25.6071 54.25 25.8296 54.1578 25.9937 53.9937C26.1578 53.8296 26.25 53.6071 26.25 53.375V50.75H28.875C29.1071 50.75 29.3296 50.6578 29.4937 50.4937C29.6578 50.3296 29.75 50.1071 29.75 49.875V46.375C29.75 46.1429 29.6578 45.9204 29.4937 45.7563C29.3296 45.5922 29.1071 45.5 28.875 45.5H26.25V42.875H28.875C29.1071 42.875 29.3296 42.7828 29.4937 42.6187C29.6578 42.4546 29.75 42.2321 29.75 42V38.5C29.75 38.2679 29.6578 38.0454 29.4937 37.8813C29.3296 37.7172 29.1071 37.625 28.875 37.625H26.25V36.75H45.5C45.7321 36.75 45.9546 36.6578 46.1187 36.4937C46.2828 36.3296 46.375 36.1071 46.375 35.875V32.375C46.375 32.1429 46.2828 31.9204 46.1187 31.7563C45.9546 31.5922 45.7321 31.5 45.5 31.5H43.75V19.845C44.3693 20.1398 45.0797 20.1794 45.728 19.9551C46.3762 19.7309 46.9103 19.2608 47.215 18.6462L47.3725 18.34C47.6519 17.7841 47.7243 17.147 47.5768 16.5425C47.4293 15.9381 47.0715 15.406 46.5675 15.0413ZM5.25 49H3.5V47.25H5.25V49ZM5.25 41.125H3.5V39.375H5.25V41.125ZM12.25 52.5H7V33.5125L9.625 29.575L12.25 33.5125V52.5ZM38.5 3.5H43.75C43.9821 3.5 44.2046 3.59219 44.3687 3.75628C44.5328 3.92038 44.625 4.14294 44.625 4.375C44.625 4.60706 44.5328 4.82962 44.3687 4.99372C44.2046 5.15781 43.9821 5.25 43.75 5.25H38.5C38.2679 5.25 38.0454 5.15781 37.8813 4.99372C37.7172 4.82962 37.625 4.60706 37.625 4.375C37.625 4.14294 37.7172 3.92038 37.8813 3.75628C38.0454 3.59219 38.2679 3.5 38.5 3.5ZM42.875 7V12.3638L39.3663 9.80875V7H42.875ZM17.5 49H14V47.25H17.5V49ZM17.5 45.5H14V42.875H17.5V45.5ZM17.5 41.125H14V39.375H17.5V41.125ZM24.5 52.5H19.25V33.5125L21.875 29.575L24.5 33.5125V52.5ZM28 47.25V49H26.25V47.25H28ZM28 39.375V41.125H26.25V39.375H28ZM25.375 31.5C25.34 31.5 25.305 31.5175 25.27 31.5175L22.6012 27.5188C22.5175 27.4048 22.4081 27.3122 22.282 27.2483C22.1558 27.1845 22.0164 27.1512 21.875 27.1512C21.7336 27.1512 21.5942 27.1845 21.468 27.2483C21.3419 27.3122 21.2325 27.4048 21.1488 27.5188L17.6488 32.7688C17.5515 32.9103 17.4996 33.0782 17.5 33.25V37.625H14V18.6113L27.475 8.60125C27.6276 8.49041 27.8114 8.43071 28 8.43071C28.1886 8.43071 28.3724 8.49041 28.525 8.60125L42 18.6113V31.5H25.375ZM44.625 33.25V35H26.25V33.25H44.625ZM45.8062 17.5612L45.6487 17.8675C45.5924 17.9816 45.5114 18.0816 45.4115 18.1603C45.3116 18.239 45.1953 18.2945 45.0712 18.3225C44.9468 18.3545 44.8168 18.3578 44.6909 18.332C44.5651 18.3062 44.4468 18.2521 44.345 18.1738L29.5663 7.20125C29.1152 6.86055 28.5653 6.67623 28 6.67623C27.4347 6.67623 26.8848 6.86055 26.4337 7.20125L11.655 18.1738C11.5543 18.2541 11.436 18.3095 11.3097 18.3353C11.1835 18.3612 11.053 18.3568 10.9287 18.3225C10.8047 18.2945 10.6884 18.239 10.5885 18.1603C10.4886 18.0816 10.4075 17.9816 10.3512 17.8675L10.1937 17.5612C10.1005 17.3752 10.0766 17.1621 10.1263 16.96C10.176 16.758 10.2961 16.5803 10.465 16.4587L27.4837 4.0775C27.6342 3.96939 27.8148 3.91124 28 3.91124C28.1852 3.91124 28.3658 3.96939 28.5163 4.0775L45.535 16.4587C45.6476 16.5398 45.7395 16.6461 45.8033 16.7693C45.8672 16.8924 45.9012 17.0288 45.9025 17.1675C45.9007 17.3044 45.8678 17.439 45.8062 17.5612Z" fill="black"/>
<path d="M46.5675 15.0413V15.05L44.625 13.6325V6.8425C45.2037 6.63252 45.6902 6.22582 45.9994 5.69351C46.3087 5.1612 46.421 4.53713 46.3167 3.9304C46.2125 3.32368 45.8983 2.77289 45.4291 2.37433C44.9599 1.97576 44.3656 1.75478 43.75 1.75H38.5C37.8044 1.75208 37.138 2.02931 36.6461 2.52114C36.1543 3.01297 35.8771 3.67945 35.875 4.375C35.875 4.91466 36.0425 5.44102 36.3544 5.88143C36.6663 6.32184 37.1072 6.65459 37.6163 6.83375V8.54L29.54 2.66875C29.0936 2.34053 28.5541 2.16351 28 2.16351C27.4459 2.16351 26.9064 2.34053 26.46 2.66875L9.4325 15.0413C8.92848 15.406 8.5707 15.9381 8.42321 16.5425C8.27572 17.147 8.34814 17.7841 8.6275 18.34L8.785 18.6462C8.95639 18.9901 9.20116 19.2921 9.50203 19.531C9.8029 19.7698 10.1525 19.9398 10.5262 20.0287C10.7237 20.0779 10.9266 20.1014 11.13 20.0987C11.5176 20.099 11.9003 20.0123 12.25 19.845V30.3625L10.3512 27.5188C10.2675 27.4048 10.1581 27.3122 10.032 27.2483C9.90582 27.1845 9.7664 27.1512 9.625 27.1512C9.4836 27.1512 9.34418 27.1845 9.21801 27.2483C9.09185 27.3122 8.98248 27.4048 8.89875 27.5188L5.39875 32.7688C5.30146 32.9103 5.24958 33.0782 5.25 33.25V37.625H2.625C2.39294 37.625 2.17038 37.7172 2.00628 37.8813C1.84219 38.0454 1.75 38.2679 1.75 38.5V42C1.75 42.2321 1.84219 42.4546 2.00628 42.6187C2.17038 42.7828 2.39294 42.875 2.625 42.875H5.25V45.5H2.625C2.39294 45.5 2.17038 45.5922 2.00628 45.7563C1.84219 45.9204 1.75 46.1429 1.75 46.375V49.875C1.75 50.1071 1.84219 50.3296 2.00628 50.4937C2.17038 50.6578 2.39294 50.75 2.625 50.75H5.25V53.375C5.25 53.6071 5.34219 53.8296 5.50628 53.9937C5.67038 54.1578 5.89294 54.25 6.125 54.25H13.125C13.3571 54.25 13.5796 54.1578 13.7437 53.9937C13.9078 53.8296 14 53.6071 14 53.375V50.75H17.5V53.375C17.5 53.6071 17.5922 53.8296 17.7563 53.9937C17.9204 54.1578 18.1429 54.25 18.375 54.25H25.375C25.6071 54.25 25.8296 54.1578 25.9937 53.9937C26.1578 53.8296 26.25 53.6071 26.25 53.375V50.75H28.875C29.1071 50.75 29.3296 50.6578 29.4937 50.4937C29.6578 50.3296 29.75 50.1071 29.75 49.875V46.375C29.75 46.1429 29.6578 45.9204 29.4937 45.7563C29.3296 45.5922 29.1071 45.5 28.875 45.5H26.25V42.875H28.875C29.1071 42.875 29.3296 42.7828 29.4937 42.6187C29.6578 42.4546 29.75 42.2321 29.75 42V38.5C29.75 38.2679 29.6578 38.0454 29.4937 37.8813C29.3296 37.7172 29.1071 37.625 28.875 37.625H26.25V36.75H45.5C45.7321 36.75 45.9546 36.6578 46.1187 36.4937C46.2828 36.3296 46.375 36.1071 46.375 35.875V32.375C46.375 32.1429 46.2828 31.9204 46.1187 31.7563C45.9546 31.5922 45.7321 31.5 45.5 31.5H43.75V19.845C44.3693 20.1398 45.0797 20.1794 45.728 19.9551C46.3762 19.7309 46.9103 19.2608 47.215 18.6462L47.3725 18.34C47.6519 17.7841 47.7243 17.147 47.5768 16.5425C47.4293 15.9381 47.0715 15.406 46.5675 15.0413ZM5.25 49H3.5V47.25H5.25V49ZM5.25 41.125H3.5V39.375H5.25V41.125ZM12.25 52.5H7V33.5125L9.625 29.575L12.25 33.5125V52.5ZM38.5 3.5H43.75C43.9821 3.5 44.2046 3.59219 44.3687 3.75628C44.5328 3.92038 44.625 4.14294 44.625 4.375C44.625 4.60706 44.5328 4.82962 44.3687 4.99372C44.2046 5.15781 43.9821 5.25 43.75 5.25H38.5C38.2679 5.25 38.0454 5.15781 37.8813 4.99372C37.7172 4.82962 37.625 4.60706 37.625 4.375C37.625 4.14294 37.7172 3.92038 37.8813 3.75628C38.0454 3.59219 38.2679 3.5 38.5 3.5ZM42.875 7V12.3638L39.3663 9.80875V7H42.875ZM17.5 49H14V47.25H17.5V49ZM17.5 45.5H14V42.875H17.5V45.5ZM17.5 41.125H14V39.375H17.5V41.125ZM24.5 52.5H19.25V33.5125L21.875 29.575L24.5 33.5125V52.5ZM28 47.25V49H26.25V47.25H28ZM28 39.375V41.125H26.25V39.375H28ZM25.375 31.5C25.34 31.5 25.305 31.5175 25.27 31.5175L22.6012 27.5188C22.5175 27.4048 22.4081 27.3122 22.282 27.2483C22.1558 27.1845 22.0164 27.1512 21.875 27.1512C21.7336 27.1512 21.5942 27.1845 21.468 27.2483C21.3419 27.3122 21.2325 27.4048 21.1488 27.5188L17.6488 32.7688C17.5515 32.9103 17.4996 33.0782 17.5 33.25V37.625H14V18.6113L27.475 8.60125C27.6276 8.49041 27.8114 8.43071 28 8.43071C28.1886 8.43071 28.3724 8.49041 28.525 8.60125L42 18.6113V31.5H25.375ZM44.625 33.25V35H26.25V33.25H44.625ZM45.8062 17.5612L45.6487 17.8675C45.5924 17.9816 45.5114 18.0816 45.4115 18.1603C45.3116 18.239 45.1953 18.2945 45.0712 18.3225C44.9468 18.3545 44.8168 18.3578 44.6909 18.332C44.5651 18.3062 44.4468 18.2521 44.345 18.1738L29.5663 7.20125C29.1152 6.86055 28.5653 6.67623 28 6.67623C27.4347 6.67623 26.8848 6.86055 26.4337 7.20125L11.655 18.1738C11.5543 18.2541 11.436 18.3095 11.3097 18.3353C11.1835 18.3612 11.053 18.3568 10.9287 18.3225C10.8047 18.2945 10.6884 18.239 10.5885 18.1603C10.4886 18.0816 10.4075 17.9816 10.3512 17.8675L10.1937 17.5612C10.1005 17.3752 10.0766 17.1621 10.1263 16.96C10.176 16.758 10.2961 16.5803 10.465 16.4587L27.4837 4.0775C27.6342 3.96939 27.8148 3.91124 28 3.91124C28.1852 3.91124 28.3658 3.96939 28.5163 4.0775L45.535 16.4587C45.6476 16.5398 45.7395 16.6461 45.8033 16.7693C45.8672 16.8924 45.9012 17.0288 45.9025 17.1675C45.9007 17.3044 45.8678 17.439 45.8062 17.5612Z" fill="url(#paint4_linear)"/>
<path d="M41.125 49H39.375V47.25H52.5C52.7321 47.25 52.9546 47.1578 53.1187 46.9937C53.2828 46.8296 53.375 46.6071 53.375 46.375V42.875C53.375 42.6429 53.2828 42.4204 53.1187 42.2563C52.9546 42.0922 52.7321 42 52.5 42H42V39.375C42 39.1429 41.9078 38.9204 41.7437 38.7563C41.5796 38.5922 41.3571 38.5 41.125 38.5H32.375C32.1429 38.5 31.9204 38.5922 31.7563 38.7563C31.5922 38.9204 31.5 39.1429 31.5 39.375V42.875C31.5 43.1071 31.5922 43.3296 31.7563 43.4937C31.9204 43.6578 32.1429 43.75 32.375 43.75H34.125V49H32.375C32.1429 49 31.9204 49.0922 31.7563 49.2563C31.5922 49.4204 31.5 49.6429 31.5 49.875V53.375C31.5 53.6071 31.5922 53.8296 31.7563 53.9937C31.9204 54.1578 32.1429 54.25 32.375 54.25H41.125C41.3571 54.25 41.5796 54.1578 41.7437 53.9937C41.9078 53.8296 42 53.6071 42 53.375V49.875C42 49.6429 41.9078 49.4204 41.7437 49.2563C41.5796 49.0922 41.3571 49 41.125 49ZM51.625 45.5H39.375V43.75H51.625V45.5ZM33.25 40.25H40.25V42H33.25V40.25ZM35.875 43.75H37.625V49H35.875V43.75ZM40.25 52.5H33.25V50.75H40.25V52.5Z" fill="black"/>
<path d="M41.125 49H39.375V47.25H52.5C52.7321 47.25 52.9546 47.1578 53.1187 46.9937C53.2828 46.8296 53.375 46.6071 53.375 46.375V42.875C53.375 42.6429 53.2828 42.4204 53.1187 42.2563C52.9546 42.0922 52.7321 42 52.5 42H42V39.375C42 39.1429 41.9078 38.9204 41.7437 38.7563C41.5796 38.5922 41.3571 38.5 41.125 38.5H32.375C32.1429 38.5 31.9204 38.5922 31.7563 38.7563C31.5922 38.9204 31.5 39.1429 31.5 39.375V42.875C31.5 43.1071 31.5922 43.3296 31.7563 43.4937C31.9204 43.6578 32.1429 43.75 32.375 43.75H34.125V49H32.375C32.1429 49 31.9204 49.0922 31.7563 49.2563C31.5922 49.4204 31.5 49.6429 31.5 49.875V53.375C31.5 53.6071 31.5922 53.8296 31.7563 53.9937C31.9204 54.1578 32.1429 54.25 32.375 54.25H41.125C41.3571 54.25 41.5796 54.1578 41.7437 53.9937C41.9078 53.8296 42 53.6071 42 53.375V49.875C42 49.6429 41.9078 49.4204 41.7437 49.2563C41.5796 49.0922 41.3571 49 41.125 49ZM51.625 45.5H39.375V43.75H51.625V45.5ZM33.25 40.25H40.25V42H33.25V40.25ZM35.875 43.75H37.625V49H35.875V43.75ZM40.25 52.5H33.25V50.75H40.25V52.5Z" fill="url(#paint5_linear)"/>
<path d="M43.75 50.75H44.625V54.25H46.375V50.75H47.25V49H43.75V50.75Z" fill="black"/>
<path d="M43.75 50.75H44.625V54.25H46.375V50.75H47.25V49H43.75V50.75Z" fill="url(#paint6_linear)"/>
<path d="M54.25 51.625H50.75V50.75H49V54.25H50.75V53.375H54.25V51.625Z" fill="black"/>
<path d="M54.25 51.625H50.75V50.75H49V54.25H50.75V53.375H54.25V51.625Z" fill="url(#paint7_linear)"/>
<defs>
<linearGradient id="paint0_linear" x1="17.4855" y1="6.15917" x2="30.6125" y2="57.4598" gradientUnits="userSpaceOnUse">
<stop stop-color="#FF9302"/>
<stop offset="0.916667" stop-color="#ED1B23"/>
</linearGradient>
<linearGradient id="paint1_linear" x1="17.4855" y1="6.15917" x2="30.6125" y2="57.4598" gradientUnits="userSpaceOnUse">
<stop stop-color="#FF9302"/>
<stop offset="0.916667" stop-color="#ED1B23"/>
</linearGradient>
<linearGradient id="paint2_linear" x1="17.4855" y1="6.15917" x2="30.6125" y2="57.4598" gradientUnits="userSpaceOnUse">
<stop stop-color="#FF9302"/>
<stop offset="0.916667" stop-color="#ED1B23"/>
</linearGradient>
<linearGradient id="paint3_linear" x1="17.4855" y1="6.15917" x2="30.6125" y2="57.4598" gradientUnits="userSpaceOnUse">
<stop stop-color="#FF9302"/>
<stop offset="0.916667" stop-color="#ED1B23"/>
</linearGradient>
<linearGradient id="paint4_linear" x1="17.4855" y1="6.15917" x2="30.6125" y2="57.4598" gradientUnits="userSpaceOnUse">
<stop stop-color="#FF9302"/>
<stop offset="0.916667" stop-color="#ED1B23"/>
</linearGradient>
<linearGradient id="paint5_linear" x1="17.4855" y1="6.15917" x2="30.6125" y2="57.4598" gradientUnits="userSpaceOnUse">
<stop stop-color="#FF9302"/>
<stop offset="0.916667" stop-color="#ED1B23"/>
</linearGradient>
<linearGradient id="paint6_linear" x1="17.4855" y1="6.15917" x2="30.6125" y2="57.4598" gradientUnits="userSpaceOnUse">
<stop stop-color="#FF9302"/>
<stop offset="0.916667" stop-color="#ED1B23"/>
</linearGradient>
<linearGradient id="paint7_linear" x1="17.4855" y1="6.15917" x2="30.6125" y2="57.4598" gradientUnits="userSpaceOnUse">
<stop stop-color="#FF9302"/>
<stop offset="0.916667" stop-color="#ED1B23"/>
</linearGradient>
</defs>
</svg>
