<svg width="134" height="134" viewBox="0 0 134 134" fill="none" xmlns="http://www.w3.org/2000/svg">
<path d="M122.223 31.4062H106.247C108.717 28.1233 110.184 24.0444 110.184 19.6289C110.184 8.80553 101.378 0 90.5547 0C84.035 0 79.2275 2.33584 75.425 7.35089C72.2438 11.5468 69.9176 17.4051 67 24.807C64.0824 17.4048 61.7562 11.5468 58.575 7.35089C54.7725 2.33584 49.965 0 43.4453 0C32.6219 0 23.8164 8.80553 23.8164 19.6289C23.8164 24.0444 25.2828 28.1233 27.7529 31.4062H11.7773C5.28332 31.4062 0 36.6896 0 43.1836V51.0352C0 56.1531 3.28221 60.5167 7.85156 62.1373V122.223C7.85156 128.717 13.1349 134 19.6289 134H114.371C120.865 134 126.148 128.717 126.148 122.223V62.1373C130.718 60.5167 134 56.1531 134 51.0352V43.1836C134 36.6896 128.717 31.4062 122.223 31.4062ZM74.2062 27.9359C80.2202 12.6782 82.5066 7.85156 90.5547 7.85156C97.0487 7.85156 102.332 13.1349 102.332 19.6289C102.332 26.1229 97.0487 31.4062 90.5547 31.4062H72.8329C73.314 30.1984 73.7728 29.0356 74.2062 27.9359ZM43.4453 7.85156C51.4934 7.85156 53.7798 12.6782 59.7938 27.9359C60.2272 29.0356 60.686 30.1984 61.1671 31.4062H43.4453C36.9513 31.4062 31.668 26.1229 31.668 19.6289C31.668 13.1349 36.9513 7.85156 43.4453 7.85156ZM51.2969 126.148H19.6289C17.4642 126.148 15.7031 124.387 15.7031 122.223V62.8125H51.2969V126.148ZM51.2969 54.9609H11.7773C9.61267 54.9609 7.85156 53.1998 7.85156 51.0352V43.1836C7.85156 41.0189 9.61267 39.2578 11.7773 39.2578H51.2969V54.9609ZM74.8516 126.148H59.1484V39.2578C59.971 39.2578 70.3395 39.2578 74.8516 39.2578V126.148ZM118.297 122.223C118.297 124.387 116.536 126.148 114.371 126.148H82.7031V62.8125H118.297V122.223ZM126.148 51.0352C126.148 53.1998 124.387 54.9609 122.223 54.9609H82.7031V39.2578H122.223C124.387 39.2578 126.148 41.0189 126.148 43.1836V51.0352Z" fill="#EDF3F6"/>
</svg>
