<svg width="16" height="16" viewBox="0 0 16 16" fill="none" xmlns="http://www.w3.org/2000/svg">
<path fill-rule="evenodd" clip-rule="evenodd" d="M1.33333 4.96962C1.33333 2.96131 2.96138 1.33325 4.96969 1.33325H11.0303C13.0386 1.33325 14.6667 2.96131 14.6667 4.96962V11.0302C14.6667 13.0385 13.0386 14.6666 11.0303 14.6666H4.96969C2.96138 14.6666 1.33333 13.0385 1.33333 11.0302V4.96962ZM8 9.8181C9.00418 9.8181 9.81818 9.0041 9.81818 7.99992C9.81818 6.99577 9.00418 6.18174 8 6.18174C6.99584 6.18174 6.18181 6.99577 6.18181 7.99992C6.18181 9.0041 6.99584 9.8181 8 9.8181ZM8 11.0302C9.67357 11.0302 11.0303 9.67349 11.0303 7.99992C11.0303 6.32633 9.67357 4.96962 8 4.96962C6.32641 4.96962 4.96969 6.32633 4.96969 7.99992C4.96969 9.67349 6.32641 11.0302 8 11.0302ZM11.3333 3.75749C11.8354 3.75749 12.2424 4.16451 12.2424 4.66659C12.2424 5.16866 11.8354 5.57568 11.3333 5.57568C10.8313 5.57568 10.4242 5.16866 10.4242 4.66659C10.4242 4.16451 10.8313 3.75749 11.3333 3.75749Z" fill="white"/>
</svg>
