<svg width="134" height="134" viewBox="0 0 134 134" fill="none" xmlns="http://www.w3.org/2000/svg">
<g clip-path="url(#clip0)">
<path d="M3.92577 134H75.116C77.2844 134 79.0418 132.243 79.0418 130.074V121.699C79.0418 116.581 75.7591 112.217 71.1903 110.597V105.488C71.1903 99.2732 66.1338 94.2178 59.919 94.2178H19.1228C12.908 94.2178 7.85153 99.2732 7.85153 105.488V110.597C3.28272 112.217 0 116.581 0 121.699V130.074C0 132.243 1.75739 134 3.92577 134ZM19.1228 102.069H59.919C61.8042 102.069 63.3388 103.603 63.3388 105.488V109.922H15.7041V105.488C15.7041 103.603 17.2376 102.069 19.1228 102.069ZM7.85153 121.699C7.85153 119.534 9.61301 117.773 11.7773 117.773H67.2635C69.4288 117.773 71.1903 119.534 71.1903 121.699V126.148H7.85153V121.699Z" fill="#EDF3F6"/>
<path d="M45.222 81.73C49.1161 86.902 56.5117 87.9734 61.7153 84.0558C65.1811 81.4468 66.7933 77.2798 66.321 73.2538C69.6967 72.6793 72.959 71.7397 76.0608 70.4731L112.818 119.295C116.713 124.47 124.109 125.536 129.311 121.62C134.498 117.714 135.542 110.316 131.636 105.127L94.8799 56.3056C96.9532 53.6751 98.7576 50.8013 100.243 47.7169C104.027 49.3036 108.471 48.8548 111.898 46.2744C117.086 42.3681 118.13 34.9694 114.223 29.7811L95.3328 4.68991C91.4264 -0.498442 84.0278 -1.54122 78.8395 2.36512C75.3737 4.97412 73.7615 9.14013 74.2338 13.1661C59.4407 15.6861 46.8281 25.1806 40.3138 38.6989C36.5373 37.1153 32.1126 37.5447 28.6571 40.1455C23.4565 44.061 22.4158 51.4382 26.3313 56.6388L45.222 81.73ZM89.4237 62.1134L94.6662 69.0766L88.3932 73.7987L83.1506 66.8366C85.3722 65.4432 87.47 63.8627 89.4237 62.1134ZM124.588 115.347C122.858 116.65 120.392 116.302 119.09 114.573L93.1153 80.0718L99.3884 75.3496L125.363 109.849C126.665 111.579 126.317 114.045 124.588 115.347ZM83.5627 8.63816C85.2976 7.33162 87.7624 7.68944 89.0608 9.41309L107.95 34.5043C109.253 36.233 108.905 38.6999 107.176 40.0014C105.443 41.3069 102.984 40.9603 101.678 39.2264L82.7877 14.1353C81.4853 12.4055 81.8329 9.9396 83.5627 8.63816ZM77.8181 20.5882C79.5183 22.8476 92.3731 39.9226 94.1019 42.2178C88.7438 55.2423 76.7396 64.2828 62.7377 65.8317L46.4539 44.2011C51.8181 31.1612 63.803 22.1391 77.8181 20.5882ZM33.3803 46.4186C35.1091 45.1161 37.5698 45.4565 38.8774 47.1935L57.7681 72.2847C57.7681 72.2847 57.7681 72.2847 57.7681 72.2857C59.0695 74.0144 58.722 76.4803 56.9932 77.7828C55.2634 79.0842 52.7975 78.7366 51.4951 77.0078L32.6044 51.9167C31.2999 50.1828 31.6464 47.7241 33.3803 46.4186Z" fill="#EDF3F6"/>
</g>
<defs>
<clipPath id="clip0">
<rect width="134" height="134" fill="white"/>
</clipPath>
</defs>
</svg>
