<svg width="24" height="24" viewBox="0 0 24 24" fill="none" xmlns="http://www.w3.org/2000/svg">
<path fill-rule="evenodd" clip-rule="evenodd" d="M2.08696 16.9566V8.07453L11.3778 14.9735C11.5625 15.1107 11.7811 15.1793 12 15.1793C12.2186 15.1793 12.4372 15.1107 12.6219 14.9735L21.913 8.07453V16.9566H2.08696ZM19.8011 7.0435L12 12.8361L4.199 7.0435H19.8011ZM23.9977 5.97759C23.9969 5.93872 23.9911 5.90011 23.9862 5.8615C23.982 5.8315 23.9799 5.80124 23.9734 5.77202C23.9658 5.73889 23.9538 5.7068 23.9429 5.6742C23.9322 5.64133 23.9228 5.6082 23.9087 5.57663C23.8967 5.54976 23.8805 5.5242 23.8659 5.49785C23.8469 5.46367 23.8286 5.42924 23.8059 5.39741C23.8015 5.39115 23.7989 5.38411 23.7942 5.37785C23.7801 5.3588 23.7626 5.3442 23.7472 5.3262C23.723 5.29802 23.6992 5.26959 23.6721 5.24376C23.647 5.22002 23.6204 5.19993 23.5936 5.17906C23.5672 5.15846 23.5414 5.13811 23.513 5.12011C23.4837 5.10159 23.453 5.0862 23.4222 5.0708C23.3927 5.05593 23.3635 5.04106 23.3324 5.02906C23.2998 5.01654 23.2664 5.00741 23.2325 4.99802C23.2012 4.98941 23.1707 4.98054 23.1383 4.9748C23.1 4.96802 23.0617 4.96567 23.0228 4.96333C23.0003 4.96176 22.9792 4.95654 22.9565 4.95654H1.04348C1.02052 4.95654 0.99887 4.96176 0.976174 4.96333C0.937826 4.96593 0.899739 4.96828 0.861913 4.9748C0.829304 4.98054 0.798261 4.98967 0.766957 4.99828C0.733304 5.00767 0.700174 5.01654 0.667826 5.02906C0.636522 5.04106 0.607304 5.05593 0.577826 5.0708C0.546783 5.08646 0.516261 5.10159 0.487043 5.12011C0.458609 5.13811 0.432783 5.15846 0.406435 5.17906C0.379565 5.19993 0.352957 5.22002 0.327913 5.24376C0.300783 5.26959 0.277043 5.29802 0.252783 5.3262C0.237652 5.3442 0.219913 5.3588 0.205826 5.37785C0.20113 5.38411 0.198522 5.39115 0.194087 5.39741C0.171391 5.42924 0.15313 5.46341 0.134087 5.49785C0.119478 5.5242 0.103304 5.54976 0.0913043 5.57689C0.0774783 5.6082 0.068087 5.64133 0.0571304 5.67393C0.0464348 5.70654 0.0341739 5.73889 0.0266087 5.77202C0.020087 5.80124 0.018 5.8315 0.014087 5.8615C0.00886957 5.90011 0.00313043 5.93872 0.00234783 5.97759C0.00208696 5.98515 0 5.9922 0 6.00002V18C0 18.5763 0.467217 19.0435 1.04348 19.0435H22.9565C23.5328 19.0435 24 18.5763 24 18V6.00002C24 5.9922 23.9979 5.98515 23.9977 5.97759V5.97759Z" fill="#ED1B23"/>
</svg>
