<svg width="72" height="72" viewBox="0 0 72 72" fill="none" xmlns="http://www.w3.org/2000/svg">
<g clip-path="url(#clip0)">
<path d="M63.4069 25.5282H65.5288V27.6502H63.4069V25.5282Z" fill="black"/>
<path d="M63.4069 25.5282H65.5288V27.6502H63.4069V25.5282Z" fill="url(#paint0_linear)"/>
<path d="M62.3459 9.53201H54.8002V3.18295C54.8002 1.42794 53.3722 0 51.6172 0H9.65408C7.89907 0 6.47113 1.42794 6.47113 3.18295V59.2849C6.47113 61.0399 7.89907 62.4678 9.65408 62.4678H17.1998V68.8171C17.1998 70.5721 18.6277 72 20.3827 72H62.346C64.101 72 65.529 70.5721 65.529 68.8171V29.7722H63.407V68.8171C63.407 69.4022 62.9311 69.878 62.346 69.878H26.3948V62.4678H51.6172C53.3722 62.4678 54.8002 61.0399 54.8002 59.2849V11.654H62.3459C62.931 11.654 63.4069 12.1299 63.4069 12.715V23.4064H65.5288V12.715C65.5288 10.96 64.101 9.53201 62.3459 9.53201ZM46.3335 2.12197V13.855L43.2537 12.3821L40.174 13.855V2.12197H46.3335ZM24.2729 69.878H20.3826C19.7975 69.878 19.3216 69.4022 19.3216 68.8171V62.4678H24.2729V69.878ZM52.6782 59.2849C52.6782 59.87 52.2023 60.3459 51.6172 60.3459H15.6663V19.0809H13.5444V60.3459H9.65408C9.06898 60.3459 8.5931 59.87 8.5931 59.2849V3.18295C8.5931 2.59785 9.06898 2.12197 9.65408 2.12197H13.5444V12.715H15.6663V2.12197H38.0521V17.2223L43.2539 14.7342L48.4556 17.2223V2.12197H51.6175C52.2026 2.12197 52.6785 2.59785 52.6785 3.18295V59.2849H52.6782Z" fill="black"/>
<path d="M62.3459 9.53201H54.8002V3.18295C54.8002 1.42794 53.3722 0 51.6172 0H9.65408C7.89907 0 6.47113 1.42794 6.47113 3.18295V59.2849C6.47113 61.0399 7.89907 62.4678 9.65408 62.4678H17.1998V68.8171C17.1998 70.5721 18.6277 72 20.3827 72H62.346C64.101 72 65.529 70.5721 65.529 68.8171V29.7722H63.407V68.8171C63.407 69.4022 62.9311 69.878 62.346 69.878H26.3948V62.4678H51.6172C53.3722 62.4678 54.8002 61.0399 54.8002 59.2849V11.654H62.3459C62.931 11.654 63.4069 12.1299 63.4069 12.715V23.4064H65.5288V12.715C65.5288 10.96 64.101 9.53201 62.3459 9.53201ZM46.3335 2.12197V13.855L43.2537 12.3821L40.174 13.855V2.12197H46.3335ZM24.2729 69.878H20.3826C19.7975 69.878 19.3216 69.4022 19.3216 68.8171V62.4678H24.2729V69.878ZM52.6782 59.2849C52.6782 59.87 52.2023 60.3459 51.6172 60.3459H15.6663V19.0809H13.5444V60.3459H9.65408C9.06898 60.3459 8.5931 59.87 8.5931 59.2849V3.18295C8.5931 2.59785 9.06898 2.12197 9.65408 2.12197H13.5444V12.715H15.6663V2.12197H38.0521V17.2223L43.2539 14.7342L48.4556 17.2223V2.12197H51.6175C52.2026 2.12197 52.6785 2.59785 52.6785 3.18295V59.2849H52.6782Z" fill="url(#paint1_linear)"/>
<path d="M13.5444 14.8369H15.6663V16.9589H13.5444V14.8369Z" fill="black"/>
<path d="M13.5444 14.8369H15.6663V16.9589H13.5444V14.8369Z" fill="url(#paint2_linear)"/>
<path d="M33.7479 21.5453C27.6256 21.5453 22.6446 26.5263 22.6446 32.6486C22.6446 35.2896 23.573 37.717 25.1185 39.625V39.6564H25.1433C27.181 42.1537 30.2809 43.7518 33.7479 43.7518C39.8702 43.7518 44.8511 38.7709 44.8511 32.6486C44.8511 26.5263 39.8702 21.5453 33.7479 21.5453ZM32.2301 33.5735V37.5345H28.6935V33.5735H32.2301ZM28.6935 31.4515V27.8863L32.2301 27.8549V31.4515H28.6935ZM34.3521 33.5735H38.3131V37.5345H34.3521V33.5735ZM34.3521 31.4515V27.8361L38.3131 27.8009V31.4514H34.3521V31.4515ZM38.3131 25.6788L34.3521 25.714V23.6898C35.7909 23.7858 37.1376 24.2215 38.3131 24.9184V25.6788ZM32.2301 25.7328L28.6935 25.7642V25.229C29.7364 24.5163 30.9366 24.0192 32.2301 23.7981V25.7328ZM26.1236 27.9092L26.5715 27.9053V31.4515H24.8488C25.0209 30.1652 25.4653 28.9644 26.1236 27.9092ZM26.5715 33.5735V37.5345H26.2177C25.4603 36.3711 24.9631 35.0235 24.814 33.5735H26.5715ZM28.6935 39.6564H32.2301V41.499C30.9366 41.2778 29.7364 40.7807 28.6935 40.0681V39.6564ZM34.3521 39.6564H38.3131V40.3787C37.1376 41.0756 35.7909 41.5112 34.3521 41.6074V39.6564ZM40.435 37.5345V33.5735H42.6818C42.5328 35.0235 42.0356 36.3711 41.278 37.5345H40.435ZM40.435 31.4515V27.7821L41.2858 27.7746C41.9913 28.8619 42.4676 30.11 42.6471 31.4515H40.435Z" fill="black"/>
<path d="M33.7479 21.5453C27.6256 21.5453 22.6446 26.5263 22.6446 32.6486C22.6446 35.2896 23.573 37.717 25.1185 39.625V39.6564H25.1433C27.181 42.1537 30.2809 43.7518 33.7479 43.7518C39.8702 43.7518 44.8511 38.7709 44.8511 32.6486C44.8511 26.5263 39.8702 21.5453 33.7479 21.5453ZM32.2301 33.5735V37.5345H28.6935V33.5735H32.2301ZM28.6935 31.4515V27.8863L32.2301 27.8549V31.4515H28.6935ZM34.3521 33.5735H38.3131V37.5345H34.3521V33.5735ZM34.3521 31.4515V27.8361L38.3131 27.8009V31.4514H34.3521V31.4515ZM38.3131 25.6788L34.3521 25.714V23.6898C35.7909 23.7858 37.1376 24.2215 38.3131 24.9184V25.6788ZM32.2301 25.7328L28.6935 25.7642V25.229C29.7364 24.5163 30.9366 24.0192 32.2301 23.7981V25.7328ZM26.1236 27.9092L26.5715 27.9053V31.4515H24.8488C25.0209 30.1652 25.4653 28.9644 26.1236 27.9092ZM26.5715 33.5735V37.5345H26.2177C25.4603 36.3711 24.9631 35.0235 24.814 33.5735H26.5715ZM28.6935 39.6564H32.2301V41.499C30.9366 41.2778 29.7364 40.7807 28.6935 40.0681V39.6564ZM34.3521 39.6564H38.3131V40.3787C37.1376 41.0756 35.7909 41.5112 34.3521 41.6074V39.6564ZM40.435 37.5345V33.5735H42.6818C42.5328 35.0235 42.0356 36.3711 41.278 37.5345H40.435ZM40.435 31.4515V27.7821L41.2858 27.7746C41.9913 28.8619 42.4676 30.11 42.6471 31.4515H40.435Z" fill="url(#paint3_linear)"/>
<path d="M58.638 56.1247H60.7599V58.2467H58.638V56.1247Z" fill="black"/>
<path d="M58.638 56.1247H60.7599V58.2467H58.638V56.1247Z" fill="url(#paint4_linear)"/>
<path d="M58.638 60.3687H60.7599V62.4906H58.638V60.3687Z" fill="black"/>
<path d="M58.638 60.3687H60.7599V62.4906H58.638V60.3687Z" fill="url(#paint5_linear)"/>
<path d="M58.638 64.6126H60.7599V66.7346H58.638V64.6126Z" fill="black"/>
<path d="M58.638 64.6126H60.7599V66.7346H58.638V64.6126Z" fill="url(#paint6_linear)"/>
</g>
<defs>
<linearGradient id="paint0_linear" x1="24.1722" y1="6.04686" x2="45.4832" y2="74.3605" gradientUnits="userSpaceOnUse">
<stop stop-color="#FF9302"/>
<stop offset="0.916667" stop-color="#ED1B23"/>
</linearGradient>
<linearGradient id="paint1_linear" x1="24.1722" y1="6.04686" x2="45.4832" y2="74.3605" gradientUnits="userSpaceOnUse">
<stop stop-color="#FF9302"/>
<stop offset="0.916667" stop-color="#ED1B23"/>
</linearGradient>
<linearGradient id="paint2_linear" x1="24.1722" y1="6.04686" x2="45.4832" y2="74.3605" gradientUnits="userSpaceOnUse">
<stop stop-color="#FF9302"/>
<stop offset="0.916667" stop-color="#ED1B23"/>
</linearGradient>
<linearGradient id="paint3_linear" x1="24.1722" y1="6.04686" x2="45.4832" y2="74.3605" gradientUnits="userSpaceOnUse">
<stop stop-color="#FF9302"/>
<stop offset="0.916667" stop-color="#ED1B23"/>
</linearGradient>
<linearGradient id="paint4_linear" x1="24.1722" y1="6.04686" x2="45.4832" y2="74.3605" gradientUnits="userSpaceOnUse">
<stop stop-color="#FF9302"/>
<stop offset="0.916667" stop-color="#ED1B23"/>
</linearGradient>
<linearGradient id="paint5_linear" x1="24.1722" y1="6.04686" x2="45.4832" y2="74.3605" gradientUnits="userSpaceOnUse">
<stop stop-color="#FF9302"/>
<stop offset="0.916667" stop-color="#ED1B23"/>
</linearGradient>
<linearGradient id="paint6_linear" x1="24.1722" y1="6.04686" x2="45.4832" y2="74.3605" gradientUnits="userSpaceOnUse">
<stop stop-color="#FF9302"/>
<stop offset="0.916667" stop-color="#ED1B23"/>
</linearGradient>
<clipPath id="clip0">
<rect width="72" height="72" fill="white"/>
</clipPath>
</defs>
</svg>
