<svg width="24" height="24" viewBox="0 0 24 24" fill="none" xmlns="http://www.w3.org/2000/svg">
<path fill-rule="evenodd" clip-rule="evenodd" d="M15.9794 15.9778C11.0423 20.9157 5.50685 22.2579 4.56285 21.8032L2.14577 19.0253C2.14657 19.0227 2.14737 19.02 2.14844 19.0173L5.62765 16.2613L6.56339 17.668C6.58179 17.6957 6.60152 17.7227 6.62232 17.7483C6.93886 18.1395 7.40552 18.3704 7.93619 18.3981C8.45353 18.4259 10.0253 18.508 14.2674 14.265C15.3165 13.2157 18.509 10.0226 18.3994 7.93382C18.3714 7.40262 18.1408 6.93595 17.7498 6.61915C17.724 6.59808 17.6973 6.57862 17.6696 6.56022L16.2626 5.62395L19.0184 2.145C19.0213 2.14394 19.0242 2.14287 19.0274 2.1418L21.8037 4.55941C22.2584 5.50395 20.9168 11.0392 15.9794 15.9778M23.3298 3.06287C23.3125 3.04554 23.2944 3.02874 23.276 3.01274L20.4101 0.516995C20.016 0.14206 19.4594 -0.0430068 18.8762 0.00845998C18.3562 0.0537935 17.8533 0.284994 17.4962 0.642329C17.4674 0.671395 17.4402 0.701795 17.4149 0.733796L14.5997 4.28767C13.8647 5.07754 13.8815 6.31861 14.6498 7.08795C14.6999 7.13808 14.7549 7.18288 14.8135 7.22208L16.253 8.18022C16.1386 8.67915 15.3874 10.1272 12.7591 12.7562C10.1306 15.3853 8.68232 16.1368 8.18339 16.2514L7.22579 14.812C7.18659 14.753 7.14179 14.6981 7.09165 14.6482C6.32232 13.8792 5.08125 13.8624 4.29164 14.5978L0.738034 17.4128C0.705501 17.4386 0.674834 17.4661 0.6455 17.4954C-0.165969 18.3085 -0.218236 19.6317 0.522033 20.4093L3.01671 23.2757C3.03271 23.2944 3.04951 23.3125 3.06684 23.3299C3.55964 23.8227 4.29884 24 5.10845 24C6.57058 24 8.26152 23.4208 9.14046 23.0752C10.8394 22.4067 14.1829 20.7917 17.4877 17.4864C19.937 15.0365 21.9216 12.0714 23.0754 9.13755C23.6125 7.77195 24.7128 4.44607 23.3298 3.06287" fill="black"/>
</svg>
