<svg width="24" height="25" viewBox="0 0 24 25" fill="none" xmlns="http://www.w3.org/2000/svg">
<path fill-rule="evenodd" clip-rule="evenodd" d="M15.9794 16.9744C11.0423 21.9123 5.50685 23.2544 4.56285 22.7998L2.14577 20.0219C2.14657 20.0192 2.14737 20.0166 2.14844 20.0139L5.62765 17.2579L6.56339 18.6646C6.58179 18.6923 6.60152 18.7192 6.62232 18.7448C6.93886 19.136 7.40552 19.367 7.93619 19.3947C8.45353 19.4224 10.0253 19.5046 14.2674 15.2616C15.3165 14.2123 18.509 11.0192 18.3994 8.9304C18.3714 8.3992 18.1408 7.93253 17.7498 7.61573C17.724 7.59467 17.6973 7.5752 17.6696 7.5568L16.2626 6.62053L19.0184 3.14159C19.0213 3.14052 19.0242 3.13945 19.0274 3.13839L21.8037 5.55599C22.2584 6.50053 20.9168 12.0357 15.9794 16.9744M23.3298 4.05945C23.3125 4.04212 23.2944 4.02532 23.276 4.00932L20.4101 1.51358C20.016 1.13864 19.4594 0.953575 18.8762 1.00504C18.3562 1.05038 17.8533 1.28158 17.4962 1.63891C17.4674 1.66798 17.4402 1.69838 17.4149 1.73038L14.5997 5.28425C13.8647 6.07412 13.8815 7.31519 14.6498 8.08453C14.6999 8.13466 14.7549 8.17946 14.8135 8.21866L16.253 9.1768C16.1386 9.67574 15.3874 11.1237 12.7591 13.7528C10.1306 16.3819 8.68232 17.1334 8.18339 17.248L7.22579 15.8086C7.18659 15.7496 7.14179 15.6947 7.09165 15.6448C6.32232 14.8758 5.08125 14.859 4.29164 15.5944L0.738034 18.4094C0.705501 18.4352 0.674834 18.4627 0.6455 18.492C-0.165969 19.3051 -0.218236 20.6283 0.522033 21.4059L3.01671 24.2723C3.03271 24.291 3.04951 24.3091 3.06684 24.3264C3.55964 24.8192 4.29884 24.9966 5.10845 24.9966C6.57058 24.9966 8.26152 24.4174 9.14046 24.0718C10.8394 23.4032 14.1829 21.7883 17.4877 18.483C19.937 16.0331 21.9216 13.068 23.0754 10.1341C23.6125 8.76853 24.7128 5.44266 23.3298 4.05945" fill="#ED1B23"/>
</svg>
