<svg width="72" height="72" viewBox="0 0 72 72" fill="none" xmlns="http://www.w3.org/2000/svg">
<path d="M59.4145 38.0549C58.8358 38.0549 58.3667 38.524 58.3667 39.1027C58.3667 39.8363 57.7699 40.4331 57.0362 40.4331C56.3027 40.4331 55.7058 39.8363 55.7058 39.1027C55.7058 38.5239 55.2367 38.0549 54.658 38.0549C54.0793 38.0549 53.6102 38.524 53.6102 39.1027C53.6102 40.9919 55.1472 42.5287 57.0362 42.5287C58.9253 42.5287 60.4623 40.9917 60.4623 39.1027C60.4623 38.5237 59.9932 38.0549 59.4145 38.0549Z" fill="black"/>
<path d="M59.4145 38.0549C58.8358 38.0549 58.3667 38.524 58.3667 39.1027C58.3667 39.8363 57.7699 40.4331 57.0362 40.4331C56.3027 40.4331 55.7058 39.8363 55.7058 39.1027C55.7058 38.5239 55.2367 38.0549 54.658 38.0549C54.0793 38.0549 53.6102 38.524 53.6102 39.1027C53.6102 40.9919 55.1472 42.5287 57.0362 42.5287C58.9253 42.5287 60.4623 40.9917 60.4623 39.1027C60.4623 38.5237 59.9932 38.0549 59.4145 38.0549Z" fill="url(#paint0_linear)"/>
<path d="M69.2499 38.226L66.3007 37.2813C65.923 37.1602 65.6253 36.8587 65.5045 36.4747C64.883 34.4985 63.945 32.6432 62.7166 30.9602C62.1568 30.1931 61.5343 29.4606 60.8542 28.7632C61.2893 26.8545 61.5258 24.6944 61.4952 22.8282C61.4513 20.1584 60.9178 18.5925 59.8642 18.0407C59.2968 17.7432 57.5699 16.8392 48.223 21.1179C48.0016 21.2191 47.7949 21.3439 47.6035 21.4867C46.9734 21.3174 46.3293 21.1608 45.6813 21.0201C45.6033 21.0031 45.5228 20.9881 45.4442 20.9715C46.2016 19.3169 46.6439 17.5198 46.727 15.6647C46.7529 15.0865 46.3053 14.5968 45.727 14.5711C45.1503 14.5424 44.6591 14.9927 44.6334 15.5709C44.4968 18.6212 43.2315 21.4912 41.0707 23.6522C39.7796 24.9433 38.2679 25.8811 36.6567 26.4718C33.8626 26.0797 31.0167 26.0797 28.2226 26.4718C26.6113 25.8811 25.0997 24.9433 23.8087 23.6522C21.5033 21.3468 20.2335 18.2816 20.2335 15.0212C20.2335 11.7607 21.5033 8.69563 23.8087 6.39022C26.1141 4.08468 29.1794 2.81497 32.4397 2.81497C35.6999 2.81497 38.7653 4.08468 41.0707 6.39022C41.9971 7.31666 42.7627 8.37388 43.3461 9.53221C43.6064 10.0491 44.2365 10.2573 44.7533 9.99683C45.2703 9.73668 45.4783 9.10654 45.218 8.58974C44.5341 7.23144 43.6373 5.99296 42.5527 4.90818C39.8514 2.20691 36.2599 0.719238 32.4398 0.719238C28.6197 0.719238 25.0282 2.20691 22.3269 4.90818C19.6256 7.60958 18.138 11.201 18.138 15.0211C18.138 18.8412 19.6256 22.4327 22.3269 25.134C23.1061 25.9132 23.9538 26.5833 24.8504 27.1446C24.8507 27.1446 24.851 27.1445 24.8513 27.1445C24.1997 27.3138 23.5531 27.5039 22.9137 27.7177C22.3649 27.9012 22.0687 28.4948 22.2522 29.0438C22.4356 29.5926 23.0295 29.8888 23.5782 29.7054C29.2926 27.795 35.587 27.795 41.3014 29.7054C41.4117 29.7423 41.5236 29.7597 41.6337 29.7597C42.072 29.7597 42.4807 29.4824 42.6274 29.0438C42.8109 28.4949 42.5147 27.9012 41.9659 27.7177C41.3265 27.5039 40.6799 27.3137 40.0283 27.1445C40.0286 27.1445 40.0289 27.1446 40.0292 27.1446C40.926 26.5833 41.7735 25.9132 42.5527 25.134C43.242 24.4446 43.8505 23.6919 44.3789 22.8919C44.6677 22.948 44.9544 23.0068 45.237 23.0681C45.6133 23.1498 45.9879 23.2375 46.3591 23.3296C46.3475 23.3752 46.3355 23.4206 46.3258 23.4669C45.8148 25.892 45.848 28.0368 46.4244 29.8414C46.9425 31.4635 47.8775 32.7777 49.2031 33.7476C50.7656 34.8906 52.652 35.3843 54.3607 35.3843C55.6467 35.3843 56.8323 35.1044 57.7031 34.6113C58.688 34.0534 59.5132 32.8779 60.1664 31.1131C60.4683 31.4655 60.7545 31.8265 61.0242 32.196C62.1179 33.6943 62.9528 35.3455 63.5057 37.1036C63.8304 38.1362 64.6365 38.9487 65.6618 39.2773L68.6109 40.2221C69.3848 40.47 69.9047 41.1823 69.9047 41.9948V46.885C69.9047 47.6976 69.3848 48.4098 68.6109 48.6577L63.8594 50.1797C63.0991 50.4234 62.4558 50.9458 62.0478 51.6509C60.181 54.8772 57.246 57.5469 53.3239 59.5861C52.8708 59.822 52.5569 60.2437 52.4624 60.7435L50.9406 68.8017C50.8985 69.0238 50.704 69.1848 50.478 69.1848H45.5299C45.3039 69.1848 45.1094 69.0236 45.0674 68.8017L44.2245 64.3483C44.0585 63.472 43.2367 62.89 42.3522 63.024C40.2207 63.3463 38.0244 63.5096 35.8246 63.5096C34.188 63.5096 32.5724 63.4183 31.0223 63.2382C30.1652 63.1396 29.3667 63.7239 29.2065 64.5702L28.4055 68.8017C28.3635 69.0238 28.169 69.1848 27.943 69.1848H22.9949C22.7689 69.1848 22.5744 69.0236 22.5318 68.7983L21.0665 61.1874C20.9721 60.6971 20.6641 60.2801 20.221 60.0434C13.5352 56.4742 10.0013 50.5112 10.0013 42.7993C10.0013 38.9029 10.8537 35.4574 12.5349 32.5583C14.1037 29.8528 16.395 27.6159 19.3452 25.9094C19.8461 25.6196 20.0173 24.9786 19.7276 24.4776C19.4379 23.9766 18.7969 23.8058 18.2959 24.0952C12.5754 27.4044 9.12516 32.5096 8.17523 38.9939V38.9937C8.07441 38.9846 7.97344 38.9759 7.87289 38.9654C7.89117 38.2658 7.76461 37.5599 7.48898 36.8748C6.88106 35.3636 5.63231 34.2729 4.30748 34.0962C3.26348 33.9564 2.26997 34.3996 1.58048 35.3106C0.580781 36.6316 0.743766 37.677 1.05638 38.3214C1.58414 39.4088 2.94075 40.1781 5.19202 40.6617C5.13014 40.7543 5.06208 40.8474 4.98755 40.9409C3.65737 42.6092 2.09025 42.978 1.07269 43.0128C0.477 43.0329 0 43.5111 0 44.1073V44.1123C0 44.7003 0.463922 45.1798 1.05131 45.2067C1.12655 45.2102 1.20516 45.212 1.287 45.212C2.57456 45.212 4.64105 44.7371 6.62639 42.2476C6.93984 41.8547 7.19522 41.4402 7.39153 41.0118C7.58925 41.0342 7.77923 41.0533 7.9612 41.0702C7.9612 41.0698 7.9612 41.0695 7.96134 41.0691C7.92562 41.6369 7.9058 42.213 7.9058 42.7993C7.9058 47.1626 8.946 51.053 10.9973 54.3629C12.8887 57.4145 15.5967 59.9131 19.0488 61.7921L20.4733 69.1912C20.7024 70.4017 21.7628 71.2804 22.9949 71.2804H27.943C29.175 71.2804 30.2355 70.4017 30.4646 69.1912L31.1888 65.3651C32.6929 65.5244 34.2502 65.6052 35.8245 65.6052C37.9845 65.6052 40.142 65.4547 42.2446 65.1577L43.008 69.1915C43.2373 70.402 44.2977 71.2805 45.5296 71.2805H50.4778C51.7098 71.2805 52.7702 70.4019 52.9995 69.191L54.4812 61.3454C58.6673 59.1318 61.8227 56.2239 63.8615 52.7004C64.0084 52.4465 64.2347 52.2601 64.4985 52.1756L69.2499 50.6536C70.8948 50.1264 72 48.612 72 46.8847V41.9945C72 40.2673 70.8948 38.753 69.2499 38.226ZM59.2422 25.7727C58.8389 29.2217 57.7571 32.172 56.67 32.7876C55.4345 33.4875 52.5819 33.6227 50.4402 32.056C48.296 30.4874 47.5823 27.6668 48.3761 23.8989C48.4559 23.5205 48.7247 23.1929 49.0953 23.0233C54.3412 20.622 57.3656 19.8366 58.4892 19.8366C58.6588 19.8366 58.785 19.8545 58.8691 19.8874C59.2066 20.2471 59.6493 22.292 59.2422 25.7727ZM2.94202 37.4063C2.83359 37.1827 3.08953 36.7897 3.25181 36.5751C3.50902 36.2353 3.74597 36.1659 3.92498 36.1659C3.96281 36.1659 3.99811 36.169 4.03045 36.1733C4.51223 36.2376 5.18723 36.7678 5.54484 37.6566C5.62908 37.8659 5.73848 38.2125 5.76408 38.6448C4.31353 38.3443 3.18656 37.911 2.94202 37.4063Z" fill="black"/>
<path d="M69.2499 38.226L66.3007 37.2813C65.923 37.1602 65.6253 36.8587 65.5045 36.4747C64.883 34.4985 63.945 32.6432 62.7166 30.9602C62.1568 30.1931 61.5343 29.4606 60.8542 28.7632C61.2893 26.8545 61.5258 24.6944 61.4952 22.8282C61.4513 20.1584 60.9178 18.5925 59.8642 18.0407C59.2968 17.7432 57.5699 16.8392 48.223 21.1179C48.0016 21.2191 47.7949 21.3439 47.6035 21.4867C46.9734 21.3174 46.3293 21.1608 45.6813 21.0201C45.6033 21.0031 45.5228 20.9881 45.4442 20.9715C46.2016 19.3169 46.6439 17.5198 46.727 15.6647C46.7529 15.0865 46.3053 14.5968 45.727 14.5711C45.1503 14.5424 44.6591 14.9927 44.6334 15.5709C44.4968 18.6212 43.2315 21.4912 41.0707 23.6522C39.7796 24.9433 38.2679 25.8811 36.6567 26.4718C33.8626 26.0797 31.0167 26.0797 28.2226 26.4718C26.6113 25.8811 25.0997 24.9433 23.8087 23.6522C21.5033 21.3468 20.2335 18.2816 20.2335 15.0212C20.2335 11.7607 21.5033 8.69563 23.8087 6.39022C26.1141 4.08468 29.1794 2.81497 32.4397 2.81497C35.6999 2.81497 38.7653 4.08468 41.0707 6.39022C41.9971 7.31666 42.7627 8.37388 43.3461 9.53221C43.6064 10.0491 44.2365 10.2573 44.7533 9.99683C45.2703 9.73668 45.4783 9.10654 45.218 8.58974C44.5341 7.23144 43.6373 5.99296 42.5527 4.90818C39.8514 2.20691 36.2599 0.719238 32.4398 0.719238C28.6197 0.719238 25.0282 2.20691 22.3269 4.90818C19.6256 7.60958 18.138 11.201 18.138 15.0211C18.138 18.8412 19.6256 22.4327 22.3269 25.134C23.1061 25.9132 23.9538 26.5833 24.8504 27.1446C24.8507 27.1446 24.851 27.1445 24.8513 27.1445C24.1997 27.3138 23.5531 27.5039 22.9137 27.7177C22.3649 27.9012 22.0687 28.4948 22.2522 29.0438C22.4356 29.5926 23.0295 29.8888 23.5782 29.7054C29.2926 27.795 35.587 27.795 41.3014 29.7054C41.4117 29.7423 41.5236 29.7597 41.6337 29.7597C42.072 29.7597 42.4807 29.4824 42.6274 29.0438C42.8109 28.4949 42.5147 27.9012 41.9659 27.7177C41.3265 27.5039 40.6799 27.3137 40.0283 27.1445C40.0286 27.1445 40.0289 27.1446 40.0292 27.1446C40.926 26.5833 41.7735 25.9132 42.5527 25.134C43.242 24.4446 43.8505 23.6919 44.3789 22.8919C44.6677 22.948 44.9544 23.0068 45.237 23.0681C45.6133 23.1498 45.9879 23.2375 46.3591 23.3296C46.3475 23.3752 46.3355 23.4206 46.3258 23.4669C45.8148 25.892 45.848 28.0368 46.4244 29.8414C46.9425 31.4635 47.8775 32.7777 49.2031 33.7476C50.7656 34.8906 52.652 35.3843 54.3607 35.3843C55.6467 35.3843 56.8323 35.1044 57.7031 34.6113C58.688 34.0534 59.5132 32.8779 60.1664 31.1131C60.4683 31.4655 60.7545 31.8265 61.0242 32.196C62.1179 33.6943 62.9528 35.3455 63.5057 37.1036C63.8304 38.1362 64.6365 38.9487 65.6618 39.2773L68.6109 40.2221C69.3848 40.47 69.9047 41.1823 69.9047 41.9948V46.885C69.9047 47.6976 69.3848 48.4098 68.6109 48.6577L63.8594 50.1797C63.0991 50.4234 62.4558 50.9458 62.0478 51.6509C60.181 54.8772 57.246 57.5469 53.3239 59.5861C52.8708 59.822 52.5569 60.2437 52.4624 60.7435L50.9406 68.8017C50.8985 69.0238 50.704 69.1848 50.478 69.1848H45.5299C45.3039 69.1848 45.1094 69.0236 45.0674 68.8017L44.2245 64.3483C44.0585 63.472 43.2367 62.89 42.3522 63.024C40.2207 63.3463 38.0244 63.5096 35.8246 63.5096C34.188 63.5096 32.5724 63.4183 31.0223 63.2382C30.1652 63.1396 29.3667 63.7239 29.2065 64.5702L28.4055 68.8017C28.3635 69.0238 28.169 69.1848 27.943 69.1848H22.9949C22.7689 69.1848 22.5744 69.0236 22.5318 68.7983L21.0665 61.1874C20.9721 60.6971 20.6641 60.2801 20.221 60.0434C13.5352 56.4742 10.0013 50.5112 10.0013 42.7993C10.0013 38.9029 10.8537 35.4574 12.5349 32.5583C14.1037 29.8528 16.395 27.6159 19.3452 25.9094C19.8461 25.6196 20.0173 24.9786 19.7276 24.4776C19.4379 23.9766 18.7969 23.8058 18.2959 24.0952C12.5754 27.4044 9.12516 32.5096 8.17523 38.9939V38.9937C8.07441 38.9846 7.97344 38.9759 7.87289 38.9654C7.89117 38.2658 7.76461 37.5599 7.48898 36.8748C6.88106 35.3636 5.63231 34.2729 4.30748 34.0962C3.26348 33.9564 2.26997 34.3996 1.58048 35.3106C0.580781 36.6316 0.743766 37.677 1.05638 38.3214C1.58414 39.4088 2.94075 40.1781 5.19202 40.6617C5.13014 40.7543 5.06208 40.8474 4.98755 40.9409C3.65737 42.6092 2.09025 42.978 1.07269 43.0128C0.477 43.0329 0 43.5111 0 44.1073V44.1123C0 44.7003 0.463922 45.1798 1.05131 45.2067C1.12655 45.2102 1.20516 45.212 1.287 45.212C2.57456 45.212 4.64105 44.7371 6.62639 42.2476C6.93984 41.8547 7.19522 41.4402 7.39153 41.0118C7.58925 41.0342 7.77923 41.0533 7.9612 41.0702C7.9612 41.0698 7.9612 41.0695 7.96134 41.0691C7.92562 41.6369 7.9058 42.213 7.9058 42.7993C7.9058 47.1626 8.946 51.053 10.9973 54.3629C12.8887 57.4145 15.5967 59.9131 19.0488 61.7921L20.4733 69.1912C20.7024 70.4017 21.7628 71.2804 22.9949 71.2804H27.943C29.175 71.2804 30.2355 70.4017 30.4646 69.1912L31.1888 65.3651C32.6929 65.5244 34.2502 65.6052 35.8245 65.6052C37.9845 65.6052 40.142 65.4547 42.2446 65.1577L43.008 69.1915C43.2373 70.402 44.2977 71.2805 45.5296 71.2805H50.4778C51.7098 71.2805 52.7702 70.4019 52.9995 69.191L54.4812 61.3454C58.6673 59.1318 61.8227 56.2239 63.8615 52.7004C64.0084 52.4465 64.2347 52.2601 64.4985 52.1756L69.2499 50.6536C70.8948 50.1264 72 48.612 72 46.8847V41.9945C72 40.2673 70.8948 38.753 69.2499 38.226ZM59.2422 25.7727C58.8389 29.2217 57.7571 32.172 56.67 32.7876C55.4345 33.4875 52.5819 33.6227 50.4402 32.056C48.296 30.4874 47.5823 27.6668 48.3761 23.8989C48.4559 23.5205 48.7247 23.1929 49.0953 23.0233C54.3412 20.622 57.3656 19.8366 58.4892 19.8366C58.6588 19.8366 58.785 19.8545 58.8691 19.8874C59.2066 20.2471 59.6493 22.292 59.2422 25.7727ZM2.94202 37.4063C2.83359 37.1827 3.08953 36.7897 3.25181 36.5751C3.50902 36.2353 3.74597 36.1659 3.92498 36.1659C3.96281 36.1659 3.99811 36.169 4.03045 36.1733C4.51223 36.2376 5.18723 36.7678 5.54484 37.6566C5.62908 37.8659 5.73848 38.2125 5.76408 38.6448C4.31353 38.3443 3.18656 37.911 2.94202 37.4063Z" fill="url(#paint1_linear)"/>
<path d="M33.4572 13.8201V10.0705C34.7503 10.1629 35.2306 10.754 35.6739 10.754C36.2281 10.754 36.4867 10.0521 36.4867 9.7011C36.4867 8.79589 34.7133 8.40805 33.4572 8.37107V7.87213C33.4572 7.6505 33.18 7.4473 32.903 7.4473C32.5889 7.4473 32.3672 7.6505 32.3672 7.87213V8.40777C30.6124 8.59255 28.8575 9.51617 28.8575 11.8437C28.8575 14.2081 30.7048 14.8731 32.3672 15.4642V19.8051C30.483 19.6573 29.9843 18.3643 29.3747 18.3643C28.9129 18.3643 28.5251 18.9739 28.5251 19.4173C28.5251 20.3224 30.0767 21.56 32.3672 21.597V22.1696C32.3672 22.3912 32.589 22.5944 32.903 22.5944C33.1802 22.5944 33.4572 22.3912 33.4572 22.1696V21.5416C35.4523 21.2644 36.8191 20.0083 36.8191 17.7363C36.8191 15.2241 35.0643 14.4112 33.4572 13.8201ZM32.478 13.4693C31.499 13.0999 30.7048 12.712 30.7048 11.6592C30.7048 10.6986 31.4436 10.2367 32.478 10.1075V13.4693ZM33.3463 19.7682V15.8706C34.2513 16.2584 34.9717 16.7757 34.9717 17.9393C34.9717 18.9925 34.3437 19.5835 33.3463 19.7682Z" fill="black"/>
<path d="M33.4572 13.8201V10.0705C34.7503 10.1629 35.2306 10.754 35.6739 10.754C36.2281 10.754 36.4867 10.0521 36.4867 9.7011C36.4867 8.79589 34.7133 8.40805 33.4572 8.37107V7.87213C33.4572 7.6505 33.18 7.4473 32.903 7.4473C32.5889 7.4473 32.3672 7.6505 32.3672 7.87213V8.40777C30.6124 8.59255 28.8575 9.51617 28.8575 11.8437C28.8575 14.2081 30.7048 14.8731 32.3672 15.4642V19.8051C30.483 19.6573 29.9843 18.3643 29.3747 18.3643C28.9129 18.3643 28.5251 18.9739 28.5251 19.4173C28.5251 20.3224 30.0767 21.56 32.3672 21.597V22.1696C32.3672 22.3912 32.589 22.5944 32.903 22.5944C33.1802 22.5944 33.4572 22.3912 33.4572 22.1696V21.5416C35.4523 21.2644 36.8191 20.0083 36.8191 17.7363C36.8191 15.2241 35.0643 14.4112 33.4572 13.8201ZM32.478 13.4693C31.499 13.0999 30.7048 12.712 30.7048 11.6592C30.7048 10.6986 31.4436 10.2367 32.478 10.1075V13.4693ZM33.3463 19.7682V15.8706C34.2513 16.2584 34.9717 16.7757 34.9717 17.9393C34.9717 18.9925 34.3437 19.5835 33.3463 19.7682Z" fill="url(#paint2_linear)"/>
<defs>
<linearGradient id="paint0_linear" x1="21.5802" y1="6.64527" x2="38.9127" y2="75.7626" gradientUnits="userSpaceOnUse">
<stop stop-color="#FF9302"/>
<stop offset="0.916667" stop-color="#ED1B23"/>
</linearGradient>
<linearGradient id="paint1_linear" x1="21.5802" y1="6.64527" x2="38.9127" y2="75.7626" gradientUnits="userSpaceOnUse">
<stop stop-color="#FF9302"/>
<stop offset="0.916667" stop-color="#ED1B23"/>
</linearGradient>
<linearGradient id="paint2_linear" x1="21.5802" y1="6.64527" x2="38.9127" y2="75.7626" gradientUnits="userSpaceOnUse">
<stop stop-color="#FF9302"/>
<stop offset="0.916667" stop-color="#ED1B23"/>
</linearGradient>
</defs>
</svg>
