<svg width="24" height="25" viewBox="0 0 24 25" fill="none" xmlns="http://www.w3.org/2000/svg">
<path fill-rule="evenodd" clip-rule="evenodd" d="M12.0003 12.1097C10.7171 12.1097 9.67332 11.0362 9.67332 9.7167C9.67332 8.39723 10.7171 7.32375 12.0003 7.32375C13.2835 7.32375 14.3278 8.39723 14.3278 9.7167C14.3278 11.0362 13.2835 12.1097 12.0003 12.1097M12.0003 5.49766C9.71036 5.49766 7.84723 7.39027 7.84723 9.7167C7.84723 12.0431 9.71036 13.9357 12.0003 13.9357C14.2904 13.9357 16.1538 12.0431 16.1538 9.7167C16.1538 7.39027 14.2904 5.49766 12.0003 5.49766M11.9993 22.4236C11.2941 21.641 10.18 20.3367 9.07023 18.7628C6.72031 15.4302 5.47831 12.4425 5.47831 10.1226C5.47831 3.59144 10.4701 3.08378 12.0001 3.08378C18.0514 3.08378 18.5218 8.47126 18.5218 10.1226C18.5218 14.7157 13.8488 20.3669 11.9993 22.4236M17.8563 3.06761C16.3579 1.73248 14.278 0.996826 12.0001 0.996826C9.72214 0.996826 7.64223 1.73248 6.14379 3.06761C4.34301 4.67248 3.39136 7.11187 3.39136 10.1226C3.39136 16.6803 10.9381 24.3645 11.2592 24.6882C11.4551 24.886 11.722 24.9968 12.0001 24.9968C12.2781 24.9968 12.545 24.886 12.7409 24.6882C13.0621 24.3645 20.6087 16.6803 20.6087 10.1226C20.6087 7.11187 19.6571 4.67248 17.8563 3.06761" fill="#ED1B23"/>
</svg>
