<svg width="134" height="134" viewBox="0 0 134 134" fill="none" xmlns="http://www.w3.org/2000/svg">
<path d="M8.40039 33.5002C8.41426 19.6299 19.6551 8.38905 33.5254 8.37517C42.2833 8.32519 50.4209 12.8896 54.9445 20.3891L62.1051 16.0425C52.4526 0.258492 31.8323 -4.71233 16.0483 4.93985C6.10093 11.023 0.0321953 21.8403 0.0253906 33.5002V50.2502H8.40039V33.5002Z" fill="#EDF3F6"/>
<path d="M58.6504 125.625H8.40039V92.125H0.0253906V134H67.0254V41.875H58.6504V125.625Z" fill="#EDF3F6"/>
<path d="M49.8817 37.0091H49.8901L109.738 25.0412L108.063 16.8337L49.4378 28.5587C46.6385 19.8145 37.2807 14.9952 28.5365 17.7942C19.7922 20.5933 14.9729 29.9513 17.772 38.6956C20.571 47.4399 29.9291 52.2592 38.6733 49.4601C44.3804 47.6331 48.6626 42.8761 49.8817 37.0091ZM33.5253 41.875C28.9 41.875 25.1503 38.1253 25.1503 33.5C25.1503 28.8746 28.9 25.125 33.5253 25.125C38.1507 25.125 41.9003 28.8746 41.9003 33.5C41.9003 38.1253 38.1507 41.875 33.5253 41.875Z" fill="#EDF3F6"/>
<path d="M131.112 16.6924C126.256 6.51287 115.991 0.0222461 104.713 0C96.2943 0.00968359 88.2862 3.63841 82.7286 9.96206L89.0098 15.4938C96.6091 6.77799 109.835 5.87245 118.551 13.4717C127.267 21.071 128.172 34.2967 120.573 43.0127C118.186 45.7508 115.127 47.8207 111.698 49.0189L108.9 50.0029V115.01L100.525 120.6L92.1505 115.018L101.727 105.228L92.988 92.125L100.525 80.8187V49.9987L97.7366 49.0147C92.234 47.0683 87.796 42.9098 85.4965 37.5451L77.7874 40.8198C80.5906 47.3876 85.6991 52.7034 92.1505 55.7649V78.3063L82.938 92.125L90.957 104.156L83.7755 111.329V119.49L100.525 130.65L117.275 119.482V55.7691C131.887 48.7993 138.082 31.3039 131.112 16.6924Z" fill="#EDF3F6"/>
<path d="M8.40039 58.625H0.0253906V67H8.40039V58.625Z" fill="#EDF3F6"/>
<path d="M8.40039 75.375H0.0253906V83.75H8.40039V75.375Z" fill="#EDF3F6"/>
<path d="M37.7129 108.875H29.3379V117.25H37.7129V108.875Z" fill="#EDF3F6"/>
<path d="M37.7129 92.125H29.3379V100.5H37.7129V92.125Z" fill="#EDF3F6"/>
</svg>
