<svg width="72" height="72" viewBox="0 0 72 72" fill="none" xmlns="http://www.w3.org/2000/svg">
<g clip-path="url(#clip0)">
<path d="M63.558 25.0736C64.1405 25.0736 64.6128 24.6015 64.6128 24.0188V13.8301C64.6128 11.7469 62.9889 10.0321 60.9157 9.92618C48.4073 9.28926 41.6844 4.1738 38.7905 1.1813C38.0539 0.419503 37.0628 0 35.9999 0C34.937 0 33.946 0.419503 33.2097 1.18116C30.3155 4.17366 23.5926 9.28912 11.0839 9.92618C9.01096 10.0321 7.38708 11.7468 7.38708 13.8301V43.2363C7.38708 51.7052 11.9437 59.5972 19.279 63.8324L31.2114 70.7204C32.6885 71.5736 34.344 72.0001 36.0001 72.0001C37.6557 72.0001 39.3118 71.5736 40.7884 70.7205L52.7211 63.8326C60.0562 59.5973 64.6129 51.7054 64.6129 43.2364V28.9412C64.6129 28.3586 64.1407 27.8865 63.5582 27.8865C62.9757 27.8865 62.5035 28.3586 62.5035 28.9412V43.2364C62.5035 50.9541 58.3509 58.1461 51.6664 62.0058L39.7336 68.8939C37.4307 70.2241 34.5693 70.224 32.2662 68.8937L20.3336 62.0058C13.6491 58.1461 9.49655 50.9541 9.49655 43.2364V13.8301C9.49655 12.871 10.2411 12.0815 11.1913 12.033C24.4226 11.3592 31.6158 5.86362 34.7261 2.64767C35.0615 2.30073 35.5139 2.10961 35.9999 2.10961C36.486 2.10961 36.9384 2.30073 37.2739 2.64781C40.384 5.86362 47.5771 11.3592 60.8083 12.033C61.7588 12.0816 62.5033 12.871 62.5033 13.8301V24.0188C62.5033 24.6015 62.9755 25.0736 63.558 25.0736Z" fill="url(#paint0_linear)"/>
<path d="M14.1247 27.8862C13.5422 27.8862 13.07 28.3583 13.07 28.9409V43.2361C13.07 49.681 16.5375 55.6875 22.1196 58.9116L34.0526 65.7998C34.645 66.1414 35.3183 66.322 35.9999 66.322C36.6816 66.322 37.3549 66.1414 37.9477 65.7996L49.8805 58.9114C55.4625 55.6875 58.93 49.681 58.93 43.2361V17.7172C58.93 16.472 58.0009 15.4168 56.7694 15.2629C47.3092 14.073 41.086 10.479 37.5299 7.67256C36.6291 6.96392 35.3709 6.96392 34.469 7.67355C30.9141 10.479 24.6908 14.073 15.2316 15.2627C13.9994 15.4168 13.0701 16.472 13.0701 17.7172V24.0188C13.0701 24.6015 13.5424 25.0736 14.1249 25.0736C14.7074 25.0736 15.1796 24.6015 15.1796 24.0188V17.7172C15.1796 17.5335 15.3143 17.3782 15.4941 17.3559C25.4356 16.1054 32.0106 12.301 35.7746 9.33061C35.9071 9.22612 36.0925 9.22598 36.2242 9.32962C39.9894 12.301 46.5644 16.1055 56.5069 17.356C56.6857 17.3782 56.8205 17.5336 56.8205 17.7172V43.2361C56.8205 48.93 53.757 54.2366 48.8258 57.0848L36.8936 63.9726C36.349 64.2868 35.6509 64.2865 35.1071 63.9729L23.1746 57.0849C18.2433 54.2366 15.1796 48.9301 15.1796 43.2361V28.9409C15.1795 28.3583 14.7074 27.8862 14.1247 27.8862Z" fill="url(#paint1_linear)"/>
<path d="M23.2144 33.5251C24.071 33.5251 24.8761 33.8585 25.4817 34.4641L30.993 39.974C31.4051 40.3861 32.0727 40.3858 32.4846 39.974L38.5219 33.9367C38.9338 33.5247 38.9338 32.857 38.5219 32.4451C38.11 32.0333 37.4421 32.0333 37.0303 32.4451L31.7388 37.7367L26.9734 32.9726C25.9695 31.9686 24.6347 31.4158 23.2146 31.4158C21.7945 31.4158 20.4596 31.9687 19.4558 32.9724C18.4513 33.9771 17.898 35.3124 17.898 36.7325C17.898 38.153 18.4514 39.488 19.4558 40.4916L27.9787 49.0145C28.982 50.0195 30.3173 50.5728 31.7389 50.5728C33.1596 50.5728 34.4945 50.0193 35.497 49.0152L52.5439 31.968C53.5488 30.9641 54.1021 29.629 54.1021 28.2088C54.1021 26.7886 53.5489 25.4533 52.5444 24.4488C51.5405 23.4449 50.2057 22.8922 48.7856 22.8922C47.3655 22.8922 46.0306 23.4451 45.0268 24.4488L40.5111 28.9643C40.0992 29.3763 40.0992 30.0441 40.5111 30.456C40.923 30.8677 41.5909 30.8677 42.0026 30.456L46.5183 25.9403C47.1237 25.3349 47.9288 25.0016 48.7856 25.0016C49.6422 25.0016 50.4473 25.3349 51.0528 25.9404C51.659 26.5466 51.9928 27.3521 51.9928 28.2088C51.9928 29.0654 51.6591 29.8704 51.0528 30.4761L34.0048 47.5242C33.4001 48.1299 32.5954 48.4635 31.7389 48.4635C30.8815 48.4635 30.0763 48.1299 29.471 47.5235L20.947 38.9996C20.3412 38.3942 20.0075 37.5891 20.0075 36.7325C20.0075 35.8757 20.3413 35.0702 20.9475 34.4641C21.5527 33.8585 22.3579 33.5251 23.2144 33.5251Z" fill="url(#paint2_linear)"/>
</g>
<defs>
<linearGradient id="paint0_linear" x1="24.5391" y1="6.04688" x2="46.4063" y2="73.9687" gradientUnits="userSpaceOnUse">
<stop stop-color="#FF9302"/>
<stop offset="0.916667" stop-color="#ED1B23"/>
</linearGradient>
<linearGradient id="paint1_linear" x1="24.5391" y1="6.04688" x2="46.4063" y2="73.9687" gradientUnits="userSpaceOnUse">
<stop stop-color="#FF9302"/>
<stop offset="0.916667" stop-color="#ED1B23"/>
</linearGradient>
<linearGradient id="paint2_linear" x1="24.5391" y1="6.04688" x2="46.4063" y2="73.9687" gradientUnits="userSpaceOnUse">
<stop stop-color="#FF9302"/>
<stop offset="0.916667" stop-color="#ED1B23"/>
</linearGradient>
<clipPath id="clip0">
<rect width="72" height="72" fill="white"/>
</clipPath>
</defs>
</svg>
