<svg width="17" height="16" viewBox="0 0 17 16" fill="none" xmlns="http://www.w3.org/2000/svg">
<g clip-path="url(#clip0)">
<path fill-rule="evenodd" clip-rule="evenodd" d="M14.2974 9.44757C14.1167 9.27784 13.9359 9.10815 13.7616 8.93525C13.2967 8.47411 13.2676 8.21473 13.6454 7.66712C14.0521 7.09073 14.4879 6.51431 14.9238 5.93792C14.9501 5.90252 14.9764 5.86724 15.0026 5.83204C15.3823 5.32263 15.7504 4.82867 15.9407 4.20867C16.086 3.80519 15.9697 3.63225 15.5339 3.54581H15.3014H12.7737C12.4832 3.54581 12.3089 3.66109 12.1926 3.94928C12.1209 4.10345 12.0541 4.25761 11.9882 4.40978C11.8938 4.62742 11.8013 4.84093 11.6987 5.04447C11.292 5.85145 10.8561 6.62959 10.217 7.29248C10.1978 7.31149 10.1786 7.33151 10.1592 7.35172C10.0318 7.48479 9.89574 7.62691 9.69395 7.55185C9.40339 7.43656 9.31622 6.97545 9.31622 6.80252V3.89165C9.25811 3.45935 9.17101 3.28642 8.76422 3.19995H6.12026C5.77161 3.19995 5.56823 3.31523 5.39391 3.54581C5.27769 3.68991 5.24863 3.77637 5.48107 3.80519C5.91689 3.89165 6.17837 4.17986 6.23648 4.61216C6.32365 5.30387 6.32365 5.99554 6.26554 6.68724C6.23648 6.88899 6.20742 7.09073 6.12026 7.29248C5.97499 7.58069 5.77161 7.63831 5.51012 7.4654C5.27769 7.29248 5.10336 7.06192 4.92904 6.83134C4.28984 5.93792 3.79591 4.98684 3.38915 3.97811C3.27293 3.68991 3.06955 3.51698 2.74995 3.51698C2.49814 3.51698 2.24634 3.51378 1.99453 3.51059C1.49093 3.50418 0.987315 3.49777 0.483712 3.51698C0.0188404 3.51698 -0.0973868 3.74756 0.0769479 4.15102C0.919526 5.96673 1.84927 7.75359 3.0405 9.36757C3.65064 10.2033 4.377 10.9239 5.27769 11.4426C6.32365 12.0479 7.42771 12.2208 8.61894 12.1631C9.17101 12.1343 9.34528 11.9902 9.37433 11.4426C9.37433 11.0679 9.43245 10.7221 9.60678 10.3763C9.81017 10.0593 10.0717 10.0016 10.3913 10.2033C10.5366 10.3186 10.6818 10.4339 10.798 10.578C10.9087 10.6978 11.0159 10.8175 11.122 10.9361C11.3224 11.1599 11.5188 11.3795 11.7277 11.5867C12.1345 11.9902 12.5994 12.2496 13.2095 12.1919H15.5339C15.9116 12.1631 16.0859 11.702 15.8826 11.2985C15.7373 11.0103 15.5339 10.7509 15.3305 10.4915C15.0206 10.1265 14.659 9.78702 14.2974 9.44757Z" fill="white"/>
</g>
<defs>
<clipPath id="clip0">
<rect width="16.64" height="16" fill="white"/>
</clipPath>
</defs>
</svg>
